<svg xmlns="http://www.w3.org/2000/svg" xmlns:xlink="http://www.w3.org/1999/xlink" version="1.1" x="0px" y="0px" viewBox="0 0 100 125" enable-background="new 0 0 100 100" xml:space="preserve"><path d="M48.777,5c-0.541,0-0.978,0.438-0.978,0.978s0.438,0.978,0.978,0.978c23.734,0,43.043,19.309,43.043,43.043  S72.511,93.043,48.777,93.043c-22.385,0-40.598-18.212-40.598-40.598s18.212-40.598,40.598-40.598  c21.037,0,38.152,17.115,38.152,38.152S69.815,88.152,48.777,88.152c-19.688,0-35.707-16.018-35.707-35.707  s16.018-35.707,35.707-35.707c18.34,0,33.261,14.92,33.261,33.261s-14.92,33.261-33.261,33.261  c-16.992,0-30.815-13.824-30.815-30.815S31.786,21.63,48.777,21.63c15.643,0,28.37,12.727,28.37,28.37S64.42,78.37,48.777,78.37  c-14.295,0-25.924-11.629-25.924-25.924s11.629-25.924,25.924-25.924c12.946,0,23.478,10.533,23.478,23.478  S61.723,73.478,48.777,73.478c-11.598,0-21.033-9.435-21.033-21.033s9.435-21.033,21.033-21.033  c10.249,0,18.587,8.338,18.587,18.587s-8.338,18.587-18.587,18.587c-8.9,0-16.141-7.241-16.141-16.141s7.241-16.141,16.141-16.141  c7.552,0,13.696,6.144,13.696,13.696s-6.144,13.696-13.696,13.696c-6.203,0-11.25-5.047-11.25-11.25s5.047-11.25,11.25-11.25  c4.855,0,8.804,3.949,8.804,8.804s-3.949,8.804-8.804,8.804c-3.506,0-6.359-2.853-6.359-6.359s2.853-6.359,6.359-6.359  c1.818,0,3.337,1.252,3.774,2.935h-3.774c-1.888,0-3.424,1.536-3.424,3.424s1.536,3.424,3.424,3.424c3.237,0,5.87-2.633,5.87-5.87  s-2.633-5.87-5.87-5.87c-4.585,0-8.315,3.731-8.315,8.315s3.731,8.315,8.315,8.315c5.934,0,10.761-4.827,10.761-10.761  s-4.827-10.761-10.761-10.761c-7.283,0-13.207,5.924-13.207,13.207s5.924,13.207,13.207,13.207c8.63,0,15.652-7.022,15.652-15.652  s-7.022-15.652-15.652-15.652c-9.979,0-18.098,8.118-18.098,18.098s8.118,18.098,18.098,18.098c11.327,0,20.543-9.216,20.543-20.543  s-9.216-20.543-20.543-20.543c-12.676,0-22.989,10.313-22.989,22.989s10.313,22.989,22.989,22.989  c14.025,0,25.435-11.41,25.435-25.435s-11.41-25.435-25.435-25.435c-15.373,0-27.88,12.507-27.88,27.88s12.507,27.88,27.88,27.88  c16.722,0,30.326-13.604,30.326-30.326S65.499,19.674,48.777,19.674c-18.07,0-32.772,14.702-32.772,32.772  s14.702,32.772,32.772,32.772c19.419,0,35.217-15.798,35.217-35.217S68.196,14.783,48.777,14.783  c-20.767,0-37.663,16.896-37.663,37.663S28.01,90.109,48.777,90.109c22.116,0,40.109-17.993,40.109-40.109  S70.893,9.891,48.777,9.891c-23.465,0-42.554,19.089-42.554,42.554S25.312,95,48.777,95c24.813,0,45-20.187,45-45S73.59,5,48.777,5z   M48.777,53.913c-0.809,0-1.467-0.658-1.467-1.467s0.658-1.467,1.467-1.467h3.774C52.114,52.661,50.595,53.913,48.777,53.913z"/><text x="0" y="115" fill="#000000" font-size="5px" font-weight="bold" font-family="'Helvetica Neue', Helvetica, Arial-Unicode, Arial, Sans-serif">Created by Valter Bispo</text><text x="0" y="120" fill="#000000" font-size="5px" font-weight="bold" font-family="'Helvetica Neue', Helvetica, Arial-Unicode, Arial, Sans-serif">from the Noun Project</text></svg>