<?xml version="1.0" encoding="utf-8"?>
<svg viewBox="-480.872 -457.066 1597.435 1521.257" xmlns="http://www.w3.org/2000/svg">
  <g transform="matrix(0.088788, 0.046008, 0.046047, -0.088767, -7055.09982, -7664.285873)" fill="#000000" stroke="none" style="transform-origin: 7381.21px 7914.29px;">
    <path d="M7078 15669 c-16 -9 -18 -33 -18 -263 0 -139 -3 -256 -7 -260 -5 -4 -8 -43 -9 -87 -1 -58 3 -82 14 -91 10 -8 63 -13 160 -15 148 -2 222 -6 372 -23 47 -5 112 -11 145 -14 68 -5 239 -25 273 -32 12 -2 32 -6 45 -8 12 -3 54 -9 92 -15 39 -6 106 -18 150 -27 44 -8 87 -16 95 -17 8 -1 17 -4 20 -7 3 -3 55 -16 115 -28 184 -37 395 -93 395 -104 0 -5 10 -8 22 -8 28 0 392 -122 396 -132 2 -5 8 -6 13 -2 5 3 29 -3 52 -14 23 -11 65 -28 92 -38 28 -9 57 -23 65 -29 8 -7 29 -15 45 -19 17 -4 53 -18 80 -31 154 -72 202 -93 225 -100 14 -4 36 -16 50 -25 14 -10 52 -31 85 -47 110 -55 165 -86 165 -93 0 -4 12 -11 27 -15 15 -3 38 -14 52 -24 14 -10 50 -29 79 -42 28 -13 52 -27 52 -31 0 -5 7 -8 15 -8 8 0 15 -4 15 -10 0 -5 5 -10 10 -10 6 0 20 -9 32 -20 11 -10 37 -27 56 -36 20 -9 54 -30 76 -45 21 -16 45 -29 53 -29 7 0 13 -3 13 -7 0 -5 20 -21 45 -36 25 -16 45 -33 45 -38 0 -5 5 -9 10 -9 11 0 150 -92 180 -118 13 -12 123 -99 229 -180 19 -15 43 -35 53 -44 10 -10 23 -18 28 -18 6 0 10 -4 10 -10 0 -5 7 -10 15 -10 8 0 15 -6 15 -12 0 -7 14 -22 30 -33 16 -11 30 -23 30 -27 0 -5 7 -8 15 -8 8 0 15 -7 15 -15 0 -8 4 -15 10 -15 5 0 25 -15 43 -32 19 -18 55 -51 81 -73 25 -22 46 -44 46 -50 0 -7 12 -18 28 -26 15 -8 29 -17 32 -20 39 -51 96 -109 107 -109 7 0 13 -4 13 -8 0 -5 13 -22 30 -38 16 -16 30 -33 30 -39 0 -5 14 -19 30 -30 16 -11 30 -25 30 -32 0 -6 13 -20 29 -29 17 -10 32 -27 35 -39 3 -12 17 -27 31 -35 14 -7 25 -17 25 -21 0 -7 36 -52 73 -90 9 -11 17 -22 17 -26 1 -5 14 -19 30 -33 17 -13 30 -27 30 -31 0 -4 20 -29 45 -56 25 -26 45 -53 45 -60 0 -7 6 -16 13 -20 17 -11 77 -89 77 -100 0 -5 13 -20 30 -33 16 -14 29 -31 30 -38 0 -7 7 -15 15 -18 8 -4 15 -14 15 -23 0 -10 13 -31 30 -47 16 -16 30 -34 30 -40 0 -7 7 -14 15 -18 8 -3 15 -15 15 -26 0 -11 4 -20 8 -20 10 0 82 -96 82 -109 0 -6 6 -14 14 -18 8 -4 24 -26 35 -48 32 -59 45 -79 54 -86 10 -7 31 -42 46 -76 6 -13 15 -23 21 -23 5 0 10 -9 10 -20 0 -11 7 -23 15 -26 8 -4 15 -12 15 -19 0 -8 6 -20 14 -27 7 -8 17 -24 20 -36 4 -12 12 -22 17 -22 5 0 9 -9 9 -20 0 -11 7 -23 15 -26 8 -4 15 -15 15 -25 0 -11 7 -22 15 -25 8 -4 15 -14 15 -24 0 -10 7 -23 15 -30 8 -7 15 -18 15 -26 0 -7 6 -19 13 -26 6 -7 41 -70 76 -141 36 -70 70 -132 78 -138 7 -6 13 -19 13 -29 0 -10 7 -23 15 -30 8 -7 15 -20 15 -30 0 -10 7 -23 15 -30 8 -7 15 -21 15 -31 0 -10 14 -44 30 -74 17 -30 30 -62 30 -69 0 -7 7 -19 15 -26 8 -7 15 -23 15 -35 0 -12 7 -28 15 -35 8 -7 15 -23 15 -37 0 -13 7 -26 15 -29 9 -4 15 -19 15 -35 0 -17 6 -32 15 -35 8 -4 15 -18 15 -34 0 -16 7 -35 15 -44 8 -8 15 -26 15 -39 0 -14 7 -30 15 -37 8 -7 15 -21 15 -32 0 -11 6 -32 14 -46 17 -35 35 -86 49 -139 6 -24 14 -43 19 -43 4 0 8 -11 8 -24 0 -14 7 -31 15 -40 8 -8 15 -30 15 -49 0 -19 7 -40 15 -47 8 -7 15 -27 15 -45 0 -18 6 -38 14 -44 7 -6 16 -34 18 -62 3 -28 10 -54 16 -58 6 -4 13 -29 15 -56 3 -27 10 -51 16 -53 6 -2 11 -19 11 -37 0 -19 6 -40 13 -47 6 -7 14 -32 15 -56 2 -24 10 -55 18 -70 8 -15 14 -38 14 -51 0 -13 6 -47 14 -75 17 -59 34 -145 45 -232 5 -34 12 -68 17 -75 5 -8 11 -45 15 -84 7 -78 11 -98 21 -105 3 -3 7 -34 9 -70 1 -36 8 -82 16 -104 7 -21 13 -75 13 -121 0 -45 3 -85 7 -88 3 -4 8 -17 9 -30 5 -49 14 -167 19 -262 3 -55 9 -129 13 -165 10 -90 9 -783 -2 -850 -12 -81 -14 -106 -17 -205 -1 -49 -6 -95 -11 -102 -5 -6 -12 -60 -15 -120 -3 -61 -11 -111 -17 -115 -6 -4 -13 -46 -15 -95 -2 -53 -9 -96 -17 -108 -8 -11 -14 -41 -14 -67 0 -26 -4 -49 -9 -53 -6 -3 -10 -13 -10 -23 -2 -63 -16 -138 -27 -145 -9 -5 -14 -25 -14 -51 0 -24 -7 -57 -15 -72 -8 -16 -15 -48 -15 -70 0 -25 -6 -47 -15 -54 -8 -7 -15 -29 -15 -49 0 -20 -7 -45 -15 -55 -8 -11 -15 -32 -15 -47 0 -15 -7 -40 -15 -55 -8 -16 -15 -43 -15 -61 0 -17 -5 -33 -11 -35 -5 -2 -13 -23 -16 -47 -3 -23 -12 -45 -19 -48 -8 -3 -14 -20 -14 -38 0 -20 -6 -35 -15 -39 -8 -3 -15 -18 -15 -33 0 -15 -7 -37 -15 -47 -8 -11 -15 -33 -15 -49 0 -15 -7 -35 -15 -43 -8 -9 -15 -24 -15 -33 0 -10 -7 -24 -15 -31 -8 -7 -15 -23 -15 -35 0 -12 -7 -28 -15 -35 -8 -7 -15 -21 -15 -30 0 -10 -8 -33 -17 -52 -9 -18 -22 -45 -30 -60 -7 -14 -13 -31 -13 -38 0 -6 -7 -18 -15 -26 -8 -9 -15 -24 -15 -35 0 -10 -4 -19 -10 -19 -5 0 -14 -18 -20 -40 -6 -21 -15 -42 -20 -45 -6 -3 -10 -15 -10 -26 0 -10 -4 -19 -10 -19 -5 0 -12 -11 -16 -25 -3 -13 -12 -29 -20 -36 -8 -6 -14 -19 -14 -29 0 -10 -7 -23 -15 -30 -8 -7 -15 -21 -15 -31 0 -11 -4 -19 -9 -19 -5 0 -13 -10 -17 -22 -3 -13 -19 -42 -35 -66 -16 -24 -29 -49 -29 -56 0 -8 -7 -16 -15 -20 -8 -3 -15 -14 -15 -24 0 -11 -7 -25 -15 -32 -8 -7 -15 -19 -15 -27 0 -7 -7 -16 -15 -19 -8 -4 -15 -15 -15 -25 0 -10 -7 -19 -15 -19 -8 0 -15 -8 -15 -19 0 -10 -7 -24 -15 -31 -8 -7 -15 -19 -15 -27 0 -7 -7 -16 -15 -19 -8 -4 -15 -15 -15 -25 0 -10 -4 -19 -9 -19 -9 0 -28 -29 -50 -77 -6 -13 -15 -23 -21 -23 -5 0 -10 -7 -10 -15 0 -9 -7 -18 -15 -21 -8 -4 -15 -15 -15 -25 0 -10 -7 -19 -15 -19 -8 0 -15 -9 -15 -19 0 -10 -7 -21 -15 -25 -8 -3 -15 -12 -15 -21 0 -8 -5 -15 -10 -15 -6 0 -15 -11 -20 -25 -5 -14 -14 -25 -20 -25 -5 0 -10 -6 -10 -13 0 -8 -13 -27 -30 -43 -16 -16 -30 -35 -30 -42 0 -7 -7 -15 -15 -18 -8 -4 -15 -10 -15 -16 0 -5 -13 -23 -30 -41 -16 -18 -30 -36 -30 -42 -1 -5 -14 -21 -30 -35 -17 -13 -30 -28 -30 -32 0 -4 -20 -29 -45 -55 -24 -26 -45 -52 -45 -58 0 -5 -14 -19 -30 -30 -16 -11 -30 -25 -30 -30 0 -13 -36 -45 -50 -45 -6 0 -10 -5 -10 -10 0 -13 -1 -14 -85 -105 -36 -38 -65 -76 -65 -82 0 -7 -5 -13 -11 -13 -6 0 -28 -18 -49 -40 -21 -22 -43 -40 -49 -40 -6 0 -11 -4 -11 -10 0 -12 -100 -110 -112 -110 -4 0 -8 -6 -8 -14 0 -7 -12 -22 -27 -32 -16 -10 -46 -36 -69 -58 -22 -23 -57 -52 -77 -66 -20 -14 -37 -28 -37 -32 0 -9 -36 -47 -47 -50 -9 -3 -36 -24 -62 -48 -9 -8 -35 -28 -56 -44 -22 -17 -42 -33 -45 -37 -3 -3 -21 -17 -40 -30 -19 -13 -44 -32 -55 -42 -62 -55 -91 -77 -102 -77 -6 0 -27 -14 -45 -31 -18 -16 -45 -38 -60 -47 -16 -9 -28 -20 -28 -24 0 -4 -7 -8 -15 -8 -8 0 -15 -4 -15 -10 0 -5 -5 -10 -10 -10 -6 0 -20 -9 -32 -20 -12 -11 -28 -20 -35 -20 -7 0 -13 -4 -13 -10 0 -5 -7 -10 -15 -10 -8 0 -15 -4 -15 -10 0 -5 -7 -10 -15 -10 -8 0 -15 -4 -15 -9 0 -5 -10 -11 -23 -15 -13 -3 -36 -17 -51 -31 -15 -14 -31 -25 -37 -25 -5 0 -9 -4 -9 -10 0 -5 -6 -10 -13 -10 -7 0 -22 -8 -33 -18 -11 -10 -32 -22 -47 -26 -15 -3 -27 -11 -27 -16 0 -6 -7 -10 -15 -10 -8 0 -15 -4 -15 -10 0 -5 -6 -10 -14 -10 -8 0 -16 -3 -18 -7 -3 -8 -29 -23 -123 -72 -27 -14 -52 -28 -55 -31 -14 -14 -73 -39 -81 -34 -5 3 -9 -2 -9 -10 0 -9 -7 -16 -15 -16 -8 0 -15 -4 -15 -8 0 -9 -60 -35 -77 -33 -7 1 -13 -3 -13 -9 0 -5 -7 -10 -15 -10 -8 0 -15 -4 -15 -9 0 -4 -20 -14 -45 -21 -25 -7 -45 -15 -45 -19 0 -3 -17 -14 -38 -23 -20 -9 -76 -35 -124 -57 -47 -23 -91 -41 -97 -41 -6 0 -11 -4 -11 -8 0 -5 -26 -17 -57 -28 -32 -10 -60 -22 -63 -25 -3 -3 -23 -12 -45 -19 -22 -7 -42 -16 -45 -19 -5 -6 -79 -33 -185 -69 -27 -9 -52 -20 -55 -23 -7 -10 -318 -109 -340 -109 -10 0 -20 -3 -22 -8 -2 -6 -64 -24 -163 -47 -11 -2 -29 -9 -40 -14 -11 -6 -67 -20 -125 -31 -58 -12 -120 -26 -138 -32 -18 -5 -43 -11 -55 -13 -66 -10 -202 -37 -211 -42 -5 -3 -25 -7 -45 -9 -20 -1 -56 -7 -81 -13 -25 -6 -85 -15 -135 -21 -49 -6 -115 -15 -144 -20 -30 -5 -73 -10 -95 -11 -23 -1 -54 -5 -71 -9 -27 -8 -148 -15 -390 -26 -69 -3 -564 -5 -620 -3 -104 5 -419 31 -463 38 -65 11 -95 16 -207 32 -83 11 -218 39 -340 69 -106 26 -245 60 -292 72 -24 6 -43 14 -43 19 0 4 -8 7 -17 7 -20 -1 -317 96 -345 112 -10 5 -46 20 -80 31 -35 12 -65 25 -68 29 -3 4 -30 15 -60 25 -30 10 -60 21 -65 26 -15 11 -128 54 -138 51 -4 -1 -7 2 -7 7 0 5 -27 20 -60 33 -33 12 -60 26 -60 30 0 5 -7 8 -15 8 -8 0 -15 4 -15 8 0 5 -19 15 -42 22 -24 7 -45 15 -48 19 -3 3 -30 17 -60 31 -30 13 -62 30 -70 36 -8 7 -49 30 -90 51 -41 21 -77 41 -78 46 -2 4 -10 7 -18 7 -8 0 -14 5 -14 10 0 6 -7 10 -15 10 -8 0 -15 5 -15 10 0 6 -5 10 -11 10 -7 0 -36 16 -65 35 -29 19 -56 35 -61 35 -5 0 -18 8 -29 18 -10 9 -45 33 -76 52 -32 19 -58 38 -58 42 0 4 -6 8 -13 8 -7 0 -22 8 -33 18 -10 10 -57 45 -104 77 -47 33 -94 68 -104 77 -11 10 -26 18 -33 18 -7 0 -13 6 -13 13 0 8 -12 20 -27 28 -15 8 -39 26 -54 41 -16 14 -37 29 -48 33 -12 3 -21 13 -21 21 0 8 -5 14 -11 14 -6 0 -27 16 -47 35 -20 20 -49 43 -64 53 -16 9 -28 22 -28 29 0 7 -7 13 -15 13 -8 0 -15 5 -15 10 0 6 -7 10 -15 10 -8 0 -15 6 -15 14 0 8 -14 23 -30 33 -17 9 -33 25 -36 35 -3 9 -14 20 -24 23 -11 3 -30 19 -44 36 -14 16 -29 29 -35 29 -6 0 -11 4 -11 9 0 5 -27 37 -60 71 -33 34 -60 66 -60 71 0 5 -5 9 -11 9 -12 0 -109 97 -109 110 0 5 -12 18 -27 27 -35 23 -63 50 -63 62 0 5 -7 11 -15 15 -8 3 -15 10 -15 16 0 12 -14 29 -99 119 -28 29 -51 58 -51 63 0 5 -13 21 -30 35 -16 13 -30 31 -30 39 0 8 -7 14 -15 14 -8 0 -15 6 -15 14 0 13 -28 50 -72 97 -10 11 -18 22 -18 27 0 4 -8 15 -18 24 -27 26 -42 46 -42 58 0 6 -7 13 -15 16 -8 4 -15 14 -15 24 0 10 -7 20 -15 24 -8 3 -15 11 -15 18 0 8 -13 28 -30 46 -16 18 -30 37 -30 42 0 5 -6 13 -13 17 -6 4 -18 20 -26 35 -8 15 -22 37 -33 47 -10 11 -18 27 -18 36 0 9 -7 18 -15 21 -8 4 -15 14 -15 25 0 10 -6 22 -13 26 -15 9 -77 108 -77 123 0 6 -7 13 -15 16 -8 4 -15 15 -15 25 0 11 -7 22 -15 25 -8 4 -15 16 -15 29 0 13 -7 25 -15 29 -8 3 -15 14 -15 25 0 11 -6 24 -13 28 -8 4 -22 24 -32 43 -10 19 -22 42 -27 50 -4 8 -13 27 -19 42 -6 16 -15 28 -20 28 -5 0 -9 8 -9 19 0 10 -7 24 -15 31 -8 7 -15 21 -15 31 0 9 -6 24 -12 31 -21 22 -48 78 -48 98 0 9 -6 23 -14 29 -8 7 -17 23 -20 36 -4 14 -11 25 -16 25 -6 0 -10 13 -10 29 0 16 -7 34 -15 41 -8 7 -15 21 -15 31 0 9 -7 24 -15 33 -8 8 -15 26 -15 41 0 14 -7 28 -15 31 -9 4 -15 19 -15 36 0 16 -11 49 -25 74 -14 24 -30 65 -36 89 -6 25 -15 45 -20 45 -5 0 -9 11 -9 24 0 13 -6 29 -14 35 -8 6 -17 32 -20 56 -4 25 -11 47 -17 50 -5 4 -9 14 -9 23 0 9 -6 29 -14 44 -8 15 -17 40 -21 57 -4 17 -11 33 -16 36 -5 4 -9 21 -9 39 0 19 -7 39 -15 46 -8 7 -15 27 -15 44 0 18 -7 41 -15 52 -8 10 -15 35 -15 55 0 20 -7 42 -15 49 -8 7 -15 29 -15 49 -1 20 -7 47 -15 61 -8 14 -14 43 -15 66 0 22 -7 49 -15 60 -8 10 -15 40 -15 66 0 25 -4 48 -10 50 -5 1 -14 33 -19 69 -5 36 -14 75 -19 85 -12 22 -32 151 -39 244 -3 36 -9 71 -15 77 -6 7 -7 24 -4 38 4 14 2 25 -4 25 -6 0 -10 27 -10 64 0 36 -5 68 -11 71 -6 4 -8 13 -5 20 3 8 1 28 -4 47 -4 18 -11 87 -14 153 -6 119 -11 170 -16 170 -13 0 -14 839 -1 864 6 10 13 67 16 127 4 60 9 127 11 149 3 22 6 48 7 58 1 9 4 17 8 17 3 0 7 32 8 72 1 39 6 79 11 88 5 10 7 20 4 23 -3 3 -1 21 5 39 6 18 12 53 12 78 1 25 6 50 10 56 5 6 12 39 15 73 4 33 10 61 14 61 5 0 6 8 3 19 -3 10 0 22 6 25 6 4 11 27 11 51 0 24 5 47 10 50 6 4 8 11 5 16 -4 5 -1 9 4 9 6 0 11 19 11 43 0 23 7 51 15 61 8 11 15 34 15 50 0 17 7 40 15 50 8 11 15 34 15 51 0 17 6 39 14 50 7 11 16 34 19 50 10 53 13 64 20 71 4 4 7 15 7 25 0 9 8 32 17 51 9 18 22 45 30 60 7 14 13 37 13 50 0 13 7 33 15 44 8 10 15 29 15 40 0 12 7 24 15 28 8 3 15 14 15 25 0 11 6 32 14 48 7 15 20 44 28 63 8 19 23 52 32 73 9 21 16 44 16 52 0 8 5 15 11 15 6 0 9 6 7 12 -3 7 6 24 19 38 13 14 23 33 23 43 0 10 7 25 15 33 8 9 15 26 15 39 0 12 7 25 15 29 8 3 15 14 15 24 0 11 7 25 15 32 8 7 15 20 15 30 0 10 7 20 15 24 8 3 15 14 15 25 0 10 7 21 15 25 8 3 15 15 15 26 0 11 7 20 15 20 10 0 15 10 15 29 0 16 6 31 15 35 8 3 15 12 15 19 0 8 7 20 15 27 8 7 15 20 15 30 0 10 7 20 15 24 8 3 15 12 15 20 0 8 6 19 13 23 14 9 32 37 47 71 5 12 14 22 20 22 5 0 10 9 10 20 0 11 7 20 15 20 9 0 15 9 15 24 0 13 7 26 15 30 8 3 15 12 15 20 0 7 7 16 15 20 8 3 15 12 15 21 0 8 5 15 10 15 6 0 14 8 18 18 11 26 75 112 84 112 4 0 8 9 8 20 0 11 6 20 13 20 6 0 23 16 36 35 13 19 27 35 32 35 5 0 9 7 9 15 0 9 7 18 15 21 8 4 15 11 15 18 1 15 36 56 49 56 6 0 11 6 11 14 0 8 7 16 15 20 8 3 15 10 15 15 0 6 20 31 45 55 25 25 45 48 45 50 0 3 13 19 30 36 16 17 30 34 30 38 0 4 14 16 30 25 17 10 30 25 30 33 0 8 7 14 15 14 8 0 15 5 15 10 0 6 20 31 45 56 25 24 45 49 45 54 0 6 5 10 10 10 6 0 29 18 51 40 22 22 45 40 50 40 5 0 9 4 9 9 0 14 92 101 107 101 7 0 13 6 13 13 0 6 14 21 30 32 16 11 30 26 30 33 0 6 4 12 10 12 13 0 42 23 102 83 27 26 53 47 57 47 4 0 24 16 44 35 20 19 39 35 42 35 3 0 16 11 29 25 13 14 28 25 35 25 6 0 11 5 11 10 0 6 5 10 11 10 7 0 22 11 35 25 13 14 27 25 32 25 5 0 17 9 28 21 10 12 32 28 48 36 16 9 57 36 90 62 34 25 78 55 99 66 22 11 50 30 63 43 14 12 29 22 35 22 5 0 9 5 9 10 0 6 7 10 15 10 8 0 15 3 15 8 0 4 20 16 45 27 25 11 45 23 45 28 0 4 17 15 37 24 21 8 56 27 78 42 56 39 175 101 175 93 0 -4 4 -2 8 4 4 6 32 24 62 40 30 16 57 32 58 37 2 4 8 4 14 1 6 -4 13 -3 17 2 7 11 146 79 181 89 14 5 41 18 60 30 19 12 46 25 60 30 27 8 112 47 120 55 3 3 10 5 15 5 25 1 75 17 75 25 0 4 12 11 27 15 35 8 245 90 299 115 23 11 48 20 57 20 9 0 73 18 142 40 69 22 130 40 135 40 5 0 21 5 37 11 15 7 35 13 43 14 8 1 34 7 58 13 89 25 127 34 152 38 14 3 32 7 40 10 19 7 104 24 150 30 19 3 60 11 90 19 45 12 256 45 385 60 100 12 130 15 225 20 58 3 115 8 128 11 27 5 759 6 787 0 11 -2 67 -7 125 -11 58 -3 141 -13 185 -20 44 -7 107 -17 140 -20 33 -4 78 -11 100 -15 22 -5 55 -12 74 -15 19 -3 38 -8 42 -11 5 -3 43 -11 86 -19 125 -24 174 -34 183 -40 5 -3 52 -16 106 -30 54 -14 100 -28 103 -32 5 -7 125 -41 164 -47 7 -1 18 -5 25 -9 6 -5 12 -5 12 0 0 4 4 3 8 -3 4 -6 39 -21 77 -34 39 -13 72 -26 75 -30 3 -4 34 -17 70 -29 36 -11 87 -32 114 -46 27 -14 58 -25 68 -25 10 0 18 -4 18 -10 0 -5 7 -10 15 -10 8 0 15 -4 15 -10 0 -5 6 -10 13 -10 8 0 50 -18 95 -40 44 -22 85 -40 90 -40 6 0 12 -3 14 -7 2 -5 32 -23 68 -41 36 -19 70 -39 75 -46 6 -7 21 -17 35 -21 14 -4 41 -18 60 -31 19 -13 40 -24 47 -24 7 0 13 -4 13 -10 0 -5 7 -10 15 -10 8 0 15 -4 15 -10 0 -5 7 -10 15 -10 8 0 15 -4 15 -10 0 -5 6 -10 13 -10 7 0 23 -9 35 -20 12 -11 24 -20 27 -20 10 0 100 -63 103 -72 2 -4 8 -8 14 -8 5 0 28 -16 51 -35 23 -20 52 -38 64 -41 13 -4 23 -12 23 -20 0 -8 7 -14 15 -14 8 0 15 -4 15 -10 0 -5 7 -10 15 -10 8 0 15 -7 15 -15 0 -8 6 -15 13 -15 7 0 23 -9 35 -20 12 -11 26 -20 32 -20 5 0 10 -7 10 -15 0 -8 7 -15 15 -15 8 0 15 -4 15 -10 0 -5 4 -10 10 -10 9 0 32 -20 90 -76 14 -13 30 -24 35 -24 6 0 19 -14 30 -30 11 -16 24 -30 28 -30 4 0 27 -18 49 -40 23 -22 46 -40 50 -40 4 0 8 -7 8 -15 0 -8 4 -15 9 -15 12 0 171 -158 171 -170 0 -6 5 -10 10 -10 11 0 50 -36 50 -46 0 -4 27 -32 60 -64 33 -32 60 -63 60 -69 0 -6 5 -11 11 -11 13 0 48 -41 49 -56 0 -7 7 -14 15 -18 8 -3 15 -11 15 -18 1 -7 14 -24 30 -38 17 -13 30 -30 30 -37 0 -7 7 -13 15 -13 8 0 15 -6 15 -13 0 -8 13 -27 30 -43 16 -16 30 -35 30 -42 0 -7 7 -15 15 -18 8 -4 15 -13 15 -20 0 -8 7 -17 15 -20 8 -4 15 -12 15 -19 0 -7 7 -15 15 -19 8 -3 15 -12 15 -21 0 -8 4 -15 9 -15 4 0 21 -19 37 -42 16 -24 32 -44 37 -46 4 -2 7 -8 7 -14 0 -6 14 -27 30 -48 17 -21 30 -42 30 -48 0 -5 7 -12 15 -16 8 -3 15 -12 15 -20 0 -7 7 -16 15 -20 8 -3 15 -14 15 -25 0 -11 6 -24 13 -28 6 -4 22 -28 35 -53 32 -64 45 -84 60 -93 6 -4 12 -14 12 -21 0 -8 7 -19 15 -26 8 -7 15 -18 15 -26 0 -7 13 -32 29 -56 16 -24 39 -61 51 -83 12 -22 32 -60 46 -84 13 -24 24 -50 24 -57 0 -6 7 -14 15 -18 8 -3 15 -17 15 -31 0 -14 4 -25 8 -25 5 0 14 -18 21 -40 6 -22 16 -40 21 -40 6 0 10 -8 10 -18 0 -10 6 -26 14 -37 7 -11 16 -32 20 -47 3 -16 11 -28 16 -28 6 0 10 -11 10 -24 0 -13 7 -29 15 -36 8 -7 15 -21 15 -31 0 -9 7 -24 15 -33 8 -8 15 -24 15 -35 0 -11 7 -26 15 -35 8 -8 15 -22 15 -31 0 -9 7 -33 16 -53 9 -21 22 -52 30 -70 8 -18 14 -41 14 -51 0 -10 7 -24 15 -31 8 -7 15 -23 15 -36 0 -12 5 -26 10 -29 6 -4 8 -10 5 -15 -3 -5 -1 -11 5 -15 5 -3 10 -16 10 -28 0 -12 7 -35 15 -51 9 -16 16 -40 17 -53 1 -12 8 -23 15 -23 9 0 13 -15 13 -43 0 -23 6 -51 14 -62 7 -11 17 -40 21 -65 4 -25 10 -49 14 -55 6 -10 26 -88 38 -150 3 -16 10 -35 15 -42 5 -6 11 -33 14 -60 3 -26 12 -58 20 -70 8 -12 14 -45 14 -72 0 -28 6 -68 14 -88 8 -21 17 -66 19 -101 3 -34 9 -68 14 -75 5 -7 10 -32 11 -57 3 -63 13 -123 22 -135 4 -5 10 -65 13 -132 3 -67 10 -131 16 -141 5 -10 11 -89 13 -176 1 -87 6 -159 9 -162 4 -2 5 -30 2 -62 -3 -31 -5 -66 -4 -77 3 -123 3 -354 -1 -361 -3 -5 -6 -67 -7 -139 -1 -71 -6 -132 -11 -135 -5 -3 -5 -11 -1 -19 5 -7 2 -33 -5 -59 -8 -25 -14 -73 -14 -106 0 -34 -7 -83 -15 -110 -8 -27 -15 -71 -15 -97 0 -26 -4 -49 -10 -51 -5 -1 -13 -32 -17 -68 -3 -35 -12 -75 -20 -90 -7 -14 -13 -44 -13 -66 0 -25 -6 -47 -15 -54 -10 -8 -15 -30 -15 -62 0 -31 -6 -55 -15 -64 -8 -9 -15 -28 -15 -44 0 -15 -7 -41 -15 -56 -8 -16 -15 -40 -15 -54 -1 -14 -7 -36 -15 -50 -8 -14 -14 -35 -15 -48 0 -12 -7 -25 -15 -28 -8 -4 -15 -18 -15 -33 0 -15 -7 -36 -15 -47 -8 -10 -15 -26 -15 -35 0 -9 -7 -30 -15 -45 -8 -16 -15 -39 -15 -50 0 -12 -7 -27 -15 -34 -8 -7 -15 -23 -15 -35 0 -12 -7 -28 -15 -35 -8 -7 -15 -23 -15 -35 0 -12 -7 -28 -15 -35 -8 -7 -15 -21 -15 -32 0 -11 -7 -26 -15 -34 -8 -9 -15 -24 -15 -33 0 -10 -7 -24 -15 -31 -8 -7 -15 -18 -15 -25 0 -14 -30 -76 -41 -85 -4 -3 -10 -16 -14 -30 -4 -13 -14 -30 -21 -38 -8 -7 -14 -22 -14 -33 0 -10 -7 -19 -15 -19 -9 0 -15 -9 -15 -25 0 -14 -7 -28 -15 -31 -8 -4 -15 -14 -15 -24 0 -10 -7 -25 -15 -34 -8 -8 -15 -24 -15 -35 0 -12 -4 -21 -9 -21 -10 0 -34 -38 -47 -72 -3 -10 -10 -18 -14 -18 -4 0 -18 -19 -30 -42 -12 -24 -27 -48 -34 -53 -7 -6 -16 -20 -20 -33 -4 -12 -12 -22 -17 -22 -5 0 -9 -6 -9 -13 0 -7 -12 -25 -27 -42 -27 -28 -44 -54 -59 -85 -11 -23 -67 -94 -81 -103 -7 -4 -13 -15 -13 -22 0 -8 -4 -15 -8 -15 -4 0 -25 -24 -47 -52 -21 -29 -44 -57 -52 -61 -7 -4 -13 -15 -13 -22 0 -8 -7 -15 -15 -15 -8 0 -15 -6 -15 -12 -1 -7 -14 -24 -30 -38 -17 -13 -30 -29 -30 -35 -1 -5 -14 -21 -30 -35 -17 -13 -30 -29 -30 -35 0 -5 -14 -19 -30 -30 -16 -11 -30 -23 -30 -26 0 -10 -71 -79 -81 -79 -5 0 -9 -5 -9 -10 0 -12 -30 -43 -64 -65 -14 -10 -26 -24 -26 -31 0 -8 -4 -14 -10 -14 -5 0 -40 -29 -77 -65 -37 -36 -72 -65 -78 -65 -5 0 -19 -14 -30 -30 -11 -16 -24 -30 -29 -30 -5 0 -19 -11 -32 -25 -13 -14 -26 -25 -30 -25 -4 0 -17 -11 -29 -24 -12 -13 -41 -36 -63 -51 -23 -15 -42 -32 -42 -36 0 -5 -5 -9 -10 -9 -6 0 -27 -16 -47 -35 -20 -19 -42 -35 -50 -35 -7 0 -13 -4 -13 -10 0 -5 -7 -10 -15 -10 -8 0 -15 -7 -15 -15 0 -8 -6 -15 -12 -15 -7 0 -29 -13 -48 -30 -19 -16 -47 -35 -62 -41 -16 -6 -28 -15 -28 -20 0 -5 -7 -9 -15 -9 -8 0 -15 -4 -15 -9 0 -5 -13 -14 -29 -21 -16 -6 -37 -19 -47 -29 -11 -9 -38 -28 -61 -41 -24 -13 -43 -27 -43 -31 0 -4 -13 -10 -30 -14 -16 -4 -30 -11 -30 -16 0 -5 -7 -9 -15 -9 -8 0 -15 -4 -15 -8 0 -8 -16 -17 -150 -88 -30 -16 -61 -34 -67 -40 -7 -7 -34 -20 -60 -30 -27 -10 -50 -21 -53 -24 -6 -8 -164 -84 -222 -107 -24 -9 -45 -20 -48 -23 -3 -4 -29 -15 -57 -24 -29 -10 -55 -22 -58 -27 -8 -12 -166 -60 -177 -53 -4 3 -8 -1 -8 -9 0 -8 -29 -23 -75 -37 -41 -13 -75 -27 -75 -32 0 -4 -10 -8 -23 -8 -13 0 -63 -14 -112 -30 -49 -17 -99 -30 -112 -30 -13 0 -23 -4 -23 -10 0 -5 -10 -10 -22 -10 -12 0 -49 -9 -82 -19 -88 -28 -351 -88 -417 -95 -31 -4 -97 -15 -145 -26 -49 -10 -118 -21 -154 -25 -36 -3 -96 -10 -135 -15 -100 -13 -268 -25 -353 -25 -39 0 -72 -3 -72 -7 0 -7 -473 -1 -525 7 -16 2 -68 7 -114 11 -46 3 -94 8 -105 10 -12 2 -64 9 -116 14 -52 6 -102 13 -110 16 -37 14 -121 33 -171 40 -30 3 -79 14 -109 24 -30 10 -99 28 -152 40 -54 12 -98 26 -98 31 0 4 -17 11 -37 14 -43 8 -108 29 -168 55 -22 9 -65 25 -95 35 -30 10 -64 24 -75 30 -11 7 -37 18 -59 25 -21 7 -91 39 -155 73 -205 106 -226 116 -238 117 -7 0 -13 5 -13 10 0 6 -4 10 -10 10 -5 0 -40 19 -77 43 -37 23 -80 49 -95 57 -16 7 -28 17 -28 21 0 4 -12 10 -26 13 -15 4 -40 20 -55 36 -16 16 -45 35 -64 41 -19 7 -35 18 -35 24 0 5 -14 16 -31 24 -16 7 -44 26 -62 42 -17 16 -37 29 -44 29 -7 0 -13 4 -13 8 0 4 -13 15 -28 24 -15 9 -44 32 -65 51 -20 20 -41 37 -46 39 -14 4 -75 56 -127 106 -25 23 -47 42 -49 42 -2 0 -19 14 -37 31 -18 17 -48 44 -66 61 -17 17 -32 35 -32 39 0 5 -5 9 -12 9 -6 0 -23 13 -37 29 -14 15 -36 33 -48 40 -13 6 -23 17 -23 23 0 6 -7 18 -15 27 -112 114 -195 208 -195 219 0 8 -6 12 -15 8 -9 -3 -15 0 -15 8 0 7 -20 34 -45 60 -25 27 -45 52 -45 57 0 5 -5 9 -10 9 -6 0 -15 11 -20 25 -5 14 -14 25 -20 25 -5 0 -10 7 -10 15 0 8 -7 15 -15 15 -8 0 -15 9 -15 20 0 11 -7 23 -15 26 -8 4 -15 13 -15 20 0 8 -7 17 -15 20 -8 4 -15 11 -15 18 0 6 -13 26 -30 44 -17 18 -30 40 -30 48 0 8 -7 17 -15 20 -8 4 -15 11 -15 18 0 6 -14 26 -30 44 -17 18 -30 40 -30 48 0 8 -7 17 -15 20 -8 4 -15 16 -15 29 0 13 -7 25 -15 29 -8 3 -15 15 -15 26 0 11 -5 20 -10 20 -6 0 -15 10 -21 23 -5 12 -27 54 -47 92 -21 39 -49 89 -61 113 -13 23 -27 42 -32 42 -5 0 -9 14 -9 30 0 18 -6 33 -15 36 -8 4 -15 13 -15 20 0 22 -39 94 -50 94 -6 0 -10 9 -10 19 0 21 -66 167 -79 175 -5 3 -11 24 -15 46 -3 22 -11 40 -16 40 -6 0 -10 8 -10 18 0 10 -7 27 -15 38 -8 10 -15 31 -15 45 0 15 -7 32 -15 39 -8 7 -15 25 -15 41 0 15 -7 34 -15 43 -8 8 -15 29 -15 46 0 18 -6 33 -15 36 -9 4 -15 19 -15 38 0 18 -5 37 -11 43 -14 14 -48 111 -49 138 0 11 -7 33 -15 48 -8 15 -15 45 -17 67 -1 22 -8 42 -15 44 -8 3 -13 21 -13 44 0 21 -7 47 -15 58 -8 10 -15 36 -15 56 0 21 -6 55 -14 75 -8 21 -17 65 -20 97 -3 33 -10 62 -15 65 -4 3 -11 34 -14 69 -3 34 -10 68 -15 75 -6 7 -12 51 -14 100 -2 53 -7 86 -13 83 -9 -3 -17 87 -19 202 -1 17 -4 32 -8 32 -4 0 -5 7 -2 15 4 8 1 22 -5 29 -7 8 -11 38 -11 68 1 29 2 202 1 383 -1 341 0 357 18 465 6 36 11 86 11 111 0 26 6 62 14 80 7 19 14 56 15 83 1 28 5 54 8 59 7 12 14 47 20 112 3 28 9 55 14 61 9 11 30 102 32 137 1 9 5 17 9 17 4 0 8 10 8 23 0 12 7 35 15 51 8 15 15 42 15 58 0 16 7 36 15 44 8 9 15 30 15 48 0 18 7 41 15 52 8 10 15 29 15 40 0 12 7 27 15 34 8 7 15 27 15 45 0 18 7 38 15 45 8 7 15 17 15 24 0 16 44 121 53 124 4 2 7 15 7 28 0 14 7 27 15 30 8 4 15 16 15 29 0 13 7 25 15 29 8 3 15 14 15 24 0 11 7 25 15 32 8 7 15 23 15 35 0 13 7 25 15 29 8 3 15 17 15 30 0 14 6 29 13 33 7 4 24 29 36 55 13 27 27 50 32 54 5 3 9 12 9 20 0 8 5 20 10 27 41 48 50 62 50 74 0 7 7 16 15 19 8 4 15 14 15 24 0 10 7 20 15 24 8 3 15 12 15 20 0 7 7 16 15 20 8 3 15 14 15 25 0 10 7 21 15 25 8 3 15 12 15 20 0 7 7 16 15 20 8 3 15 15 15 26 0 11 7 23 15 26 8 4 15 10 15 15 0 11 16 32 43 57 9 9 17 20 17 24 0 9 45 62 73 87 9 8 17 19 17 24 0 4 13 21 30 37 16 16 30 32 30 35 0 3 20 26 45 52 25 25 45 49 45 53 0 4 7 10 15 14 8 3 15 12 15 21 0 8 7 15 15 15 8 0 15 4 15 9 0 4 15 22 32 39 18 17 62 58 97 91 35 34 68 61 73 61 4 0 8 7 8 15 0 8 5 15 11 15 6 0 28 18 49 40 21 22 41 40 45 40 4 0 18 11 31 25 13 14 26 25 30 25 4 0 17 11 30 25 13 14 28 25 34 25 5 0 10 5 10 10 0 6 7 10 15 10 8 0 15 6 15 14 0 7 20 24 45 37 25 13 45 28 45 34 0 6 13 16 28 23 16 6 37 20 48 30 10 9 31 23 47 29 15 7 27 17 27 23 0 5 7 10 15 10 8 0 15 5 15 10 0 6 7 10 15 10 8 0 15 5 15 10 0 6 6 10 14 10 8 0 16 6 19 13 2 7 26 23 53 36 27 13 54 29 59 35 6 6 28 20 50 31 22 11 48 28 59 37 10 9 31 20 47 23 15 4 33 13 39 20 6 8 33 24 58 36 26 13 49 26 52 29 7 9 158 80 170 80 6 0 10 5 10 10 0 6 5 10 11 10 16 0 103 43 107 53 2 4 11 7 20 7 10 0 31 9 49 19 17 11 50 25 72 32 23 7 41 16 41 21 0 4 3 7 8 6 4 -1 19 4 35 10 69 30 84 35 105 38 13 1 29 7 36 13 23 19 244 89 464 146 52 14 97 27 102 30 15 9 125 30 315 59 11 2 29 6 40 9 22 7 157 25 245 33 30 2 75 6 100 9 207 19 493 24 645 12 232 -19 415 -42 490 -62 28 -8 75 -17 105 -20 30 -4 96 -19 145 -35 50 -15 112 -32 140 -39 27 -7 52 -16 55 -20 3 -4 43 -18 90 -30 46 -12 87 -26 90 -30 3 -4 23 -14 45 -21 22 -7 72 -27 110 -45 39 -18 95 -45 125 -59 30 -14 61 -26 68 -26 6 0 12 -4 12 -10 0 -5 5 -10 11 -10 6 0 23 -8 37 -19 15 -10 44 -24 65 -32 20 -7 37 -18 37 -25 0 -6 12 -15 26 -18 14 -4 49 -22 77 -41 29 -19 57 -35 64 -35 7 0 13 -4 13 -10 0 -5 7 -10 15 -10 8 0 15 -4 15 -10 0 -5 6 -10 13 -10 7 0 28 -13 47 -30 19 -16 41 -29 48 -30 6 0 12 -4 12 -10 0 -5 5 -10 11 -10 7 0 21 -10 33 -22 12 -13 33 -29 49 -37 15 -8 27 -18 27 -22 0 -4 17 -18 38 -30 20 -12 44 -30 53 -38 9 -9 35 -32 58 -51 23 -19 70 -61 103 -92 33 -32 64 -58 69 -58 5 0 9 -5 9 -11 0 -13 96 -109 110 -109 5 0 10 -5 10 -10 0 -6 27 -37 60 -71 33 -33 60 -63 60 -66 0 -4 25 -34 73 -84 9 -11 17 -23 17 -27 0 -5 14 -21 30 -37 17 -16 30 -34 30 -40 0 -6 13 -22 30 -35 16 -14 29 -31 30 -38 0 -7 7 -15 15 -18 8 -4 15 -12 15 -19 0 -12 29 -50 73 -96 9 -11 17 -26 17 -34 0 -9 7 -18 15 -21 8 -4 15 -15 15 -25 0 -11 7 -22 15 -25 8 -4 15 -13 15 -20 0 -8 7 -17 15 -20 8 -4 15 -14 15 -24 0 -10 7 -20 15 -24 8 -3 15 -14 15 -24 0 -11 7 -25 15 -32 8 -7 15 -18 15 -26 0 -7 6 -17 13 -21 7 -4 24 -32 37 -60 14 -29 28 -53 32 -53 5 0 8 -9 8 -19 0 -11 5 -23 10 -26 6 -4 20 -28 31 -53 11 -26 24 -54 29 -62 5 -8 27 -53 50 -100 23 -47 45 -93 51 -102 5 -10 9 -26 9 -37 0 -10 7 -24 15 -31 8 -7 15 -23 15 -37 0 -13 7 -26 15 -29 8 -4 15 -16 15 -28 0 -11 7 -34 15 -50 9 -16 16 -40 17 -53 2 -13 8 -29 15 -35 7 -6 13 -20 13 -32 0 -12 7 -31 15 -42 8 -10 15 -28 15 -39 0 -11 7 -33 15 -49 8 -15 15 -40 15 -55 0 -15 7 -36 15 -47 8 -10 15 -30 15 -44 0 -14 7 -38 15 -54 8 -15 15 -40 15 -55 0 -14 6 -46 14 -71 8 -25 21 -68 30 -96 9 -29 16 -70 16 -93 0 -23 6 -54 14 -69 7 -15 16 -57 19 -95 2 -37 9 -73 14 -80 6 -6 13 -61 17 -121 3 -60 10 -114 15 -120 7 -8 25 -496 23 -601 -3 -99 -20 -334 -26 -344 -5 -7 -11 -47 -13 -89 -3 -43 -12 -89 -19 -104 -8 -15 -14 -52 -14 -82 0 -30 -4 -57 -9 -61 -6 -3 -13 -27 -17 -53 -3 -26 -10 -52 -15 -58 -5 -6 -12 -33 -16 -60 -3 -27 -12 -55 -20 -62 -7 -7 -13 -28 -13 -47 0 -18 -5 -35 -10 -37 -6 -2 -13 -21 -17 -43 -3 -22 -12 -44 -20 -48 -7 -4 -13 -21 -13 -37 0 -15 -5 -30 -11 -32 -5 -2 -13 -24 -16 -48 -3 -25 -12 -49 -19 -53 -8 -4 -14 -16 -14 -26 0 -10 -7 -24 -15 -31 -8 -7 -15 -23 -15 -35 0 -13 -7 -25 -15 -29 -8 -3 -15 -15 -15 -26 0 -12 -7 -28 -15 -36 -8 -9 -15 -24 -15 -35 0 -11 -7 -22 -15 -25 -8 -4 -15 -17 -15 -30 0 -14 -7 -27 -15 -30 -8 -4 -15 -14 -15 -24 0 -10 -7 -23 -15 -30 -8 -7 -15 -18 -15 -25 0 -7 -7 -18 -15 -25 -8 -7 -15 -20 -15 -30 0 -10 -7 -20 -15 -24 -8 -3 -15 -10 -15 -16 0 -11 -9 -24 -42 -61 -10 -10 -18 -25 -18 -33 0 -7 -7 -19 -15 -26 -8 -7 -15 -18 -15 -26 0 -7 -6 -17 -14 -21 -8 -4 -24 -25 -36 -45 -12 -21 -26 -38 -31 -38 -5 0 -9 -6 -9 -13 0 -8 -13 -27 -30 -43 -16 -16 -30 -32 -30 -36 0 -5 -8 -16 -17 -26 -10 -10 -36 -40 -58 -66 -22 -26 -61 -71 -87 -99 -27 -28 -48 -54 -48 -59 0 -4 -7 -8 -15 -8 -8 0 -15 -7 -15 -15 0 -8 -7 -15 -15 -15 -8 0 -15 -9 -15 -20 0 -11 -4 -20 -9 -20 -4 0 -33 -24 -64 -54 -31 -30 -67 -62 -81 -71 -14 -10 -26 -22 -26 -29 0 -6 -13 -17 -30 -24 -16 -8 -30 -20 -30 -28 0 -8 -7 -14 -15 -14 -8 0 -15 -4 -15 -8 0 -4 -13 -16 -30 -25 -16 -10 -30 -25 -30 -33 0 -8 -6 -14 -14 -14 -8 0 -30 -13 -48 -30 -18 -16 -37 -30 -42 -30 -5 0 -19 -11 -32 -25 -13 -14 -28 -25 -34 -25 -5 0 -10 -4 -10 -10 0 -5 -7 -10 -15 -10 -8 0 -15 -4 -15 -8 0 -5 -12 -15 -27 -23 -16 -8 -37 -22 -47 -31 -11 -10 -26 -18 -33 -18 -7 0 -13 -4 -13 -10 0 -5 -6 -10 -14 -10 -8 0 -29 -13 -47 -30 -18 -16 -45 -32 -61 -35 -15 -4 -28 -11 -28 -16 0 -5 -7 -9 -15 -9 -8 0 -15 -3 -15 -7 0 -5 -20 -17 -45 -28 -25 -11 -45 -22 -45 -25 0 -7 -72 -40 -88 -40 -6 0 -17 -6 -24 -13 -7 -7 -35 -23 -63 -36 -87 -40 -95 -44 -95 -53 0 -4 -9 -8 -21 -8 -22 0 -121 -39 -129 -51 -3 -4 -19 -10 -35 -14 -42 -10 -85 -29 -85 -37 0 -4 -7 -5 -15 -2 -8 4 -15 1 -15 -5 0 -6 -12 -11 -27 -11 -16 0 -72 -16 -127 -35 -54 -19 -105 -35 -115 -35 -9 0 -29 -7 -45 -15 -28 -15 -50 -21 -111 -31 -16 -3 -52 -11 -80 -18 -27 -8 -66 -17 -85 -21 -19 -4 -53 -11 -75 -16 -22 -5 -65 -11 -95 -14 -30 -3 -66 -8 -80 -11 -14 -3 -41 -8 -60 -10 -19 -2 -46 -7 -60 -10 -50 -13 -77 -16 -215 -24 -261 -17 -632 -11 -728 11 -26 6 -54 8 -62 5 -8 -3 -15 -2 -15 3 0 4 -33 13 -72 20 -40 7 -109 22 -153 33 -44 11 -86 20 -92 21 -7 0 -13 4 -13 9 0 4 -10 8 -23 8 -27 0 -117 28 -132 41 -5 5 -18 9 -29 9 -10 0 -46 13 -80 28 -34 16 -82 35 -108 43 -27 7 -48 17 -48 20 0 4 -13 10 -30 14 -16 4 -30 10 -30 15 0 5 -13 11 -30 15 -16 4 -30 11 -30 16 0 5 -7 9 -15 9 -8 0 -15 4 -15 8 0 5 -18 14 -40 21 -22 6 -52 23 -67 37 -14 13 -37 27 -50 30 -13 4 -23 10 -23 15 0 5 -7 9 -15 9 -8 0 -15 3 -15 8 0 4 -20 18 -45 31 -25 13 -45 28 -45 32 0 5 -7 9 -15 9 -8 0 -15 5 -15 10 0 6 -5 10 -10 10 -6 0 -21 11 -34 25 -13 14 -28 25 -33 25 -6 0 -22 11 -36 24 -14 13 -39 34 -57 46 -18 12 -43 33 -57 46 -14 13 -30 24 -34 24 -5 0 -9 7 -9 15 0 8 -7 15 -15 15 -8 0 -15 7 -15 16 0 10 -6 14 -15 10 -8 -3 -15 -1 -15 5 0 13 -98 109 -111 109 -5 0 -9 4 -9 8 0 5 -20 30 -45 56 -25 27 -45 52 -45 57 0 5 -7 9 -15 9 -8 0 -15 6 -15 13 0 7 -13 24 -30 37 -16 14 -29 29 -30 34 0 9 -13 25 -63 76 -15 15 -27 33 -27 39 0 7 -7 14 -15 17 -8 4 -15 13 -15 20 0 8 -7 17 -15 20 -8 4 -15 12 -15 19 0 7 -7 15 -15 19 -8 3 -15 10 -15 16 0 10 -46 77 -80 117 -5 7 -10 17 -10 23 0 6 -6 13 -14 16 -8 3 -17 16 -20 30 -4 13 -11 24 -16 24 -6 0 -10 8 -10 19 0 10 -7 24 -15 31 -8 7 -15 17 -15 22 0 11 -42 72 -52 76 -5 2 -8 15 -8 28 0 13 -4 24 -10 24 -5 0 -13 12 -16 27 -4 15 -13 34 -21 41 -7 7 -13 22 -13 31 0 10 -7 24 -15 31 -8 7 -15 19 -15 27 0 7 -7 16 -15 19 -8 4 -15 16 -15 29 0 12 -7 28 -15 35 -8 7 -15 20 -15 30 0 10 -13 45 -29 77 -16 33 -33 71 -36 86 -4 15 -11 27 -16 27 -5 0 -9 9 -9 21 0 11 -6 33 -14 47 -31 58 -46 101 -46 130 0 17 -7 37 -15 46 -8 8 -15 28 -15 44 0 16 -7 35 -15 42 -8 7 -15 29 -15 50 0 21 -7 43 -15 50 -9 8 -15 30 -15 59 0 25 -7 55 -15 65 -8 11 -15 39 -15 62 0 23 -6 57 -14 75 -8 19 -16 57 -18 85 -2 29 -8 58 -14 65 -6 8 -11 46 -13 84 -1 39 -7 87 -12 108 -5 20 -7 41 -4 46 3 5 1 11 -5 13 -15 5 -15 705 0 743 7 17 16 62 22 100 13 102 14 104 21 111 4 4 7 22 7 41 0 18 4 33 10 33 5 0 7 6 4 14 -3 8 -1 17 5 21 6 3 11 23 11 43 1 20 7 48 15 62 8 14 14 35 15 46 0 12 7 35 15 50 8 16 15 38 15 49 0 11 7 29 15 39 8 11 15 29 15 40 0 12 7 30 15 40 8 11 15 28 15 39 0 10 7 25 15 33 8 9 15 24 15 33 0 10 7 24 15 31 8 7 15 21 15 32 0 10 7 21 15 24 8 4 15 17 15 30 0 14 7 27 15 30 8 4 15 16 15 29 0 13 7 25 15 29 8 3 15 14 15 25 0 10 7 21 15 25 8 3 15 14 15 25 0 11 3 21 8 23 11 5 52 66 52 78 0 5 5 10 10 10 6 0 15 10 20 23 15 33 32 57 63 88 15 16 27 33 27 38 0 6 20 30 44 54 24 25 47 53 50 64 4 11 18 26 31 33 14 7 25 19 25 26 0 6 7 14 15 18 8 3 15 12 15 21 0 8 5 15 11 15 6 0 49 38 95 85 47 47 89 85 94 85 6 0 10 7 10 15 0 8 5 15 10 15 6 0 20 9 32 20 12 11 28 20 35 20 7 0 13 7 13 15 0 8 7 15 15 15 8 0 15 5 15 10 0 6 5 10 10 10 6 0 21 11 34 25 13 14 28 25 35 25 6 0 11 4 11 8 0 4 19 20 43 35 23 15 58 40 77 57 19 16 39 30 43 30 12 0 131 81 135 91 2 5 10 9 18 9 8 0 22 8 33 19 10 10 36 24 57 31 22 7 41 16 44 19 7 10 134 71 146 71 6 0 21 9 34 20 13 11 30 20 38 20 16 0 102 38 112 49 3 3 10 6 15 7 28 2 75 17 75 24 0 8 112 44 170 55 19 4 44 12 55 19 44 26 319 90 475 110 63 8 126 17 140 19 117 23 475 33 610 18 58 -7 121 -14 140 -16 80 -9 314 -63 365 -85 11 -4 41 -14 68 -20 26 -7 50 -16 52 -21 3 -4 28 -15 57 -25 28 -9 82 -32 119 -50 38 -19 73 -34 78 -34 5 0 11 -6 14 -14 3 -8 24 -20 46 -27 23 -7 41 -16 41 -21 0 -4 7 -8 15 -8 8 0 15 -4 15 -8 0 -5 20 -19 45 -32 25 -13 45 -27 45 -32 0 -4 6 -8 13 -8 7 0 22 -8 33 -17 10 -10 37 -31 59 -47 22 -17 42 -33 45 -36 3 -3 23 -19 44 -35 21 -16 63 -53 93 -82 30 -29 58 -53 63 -53 6 0 10 -5 10 -10 0 -6 27 -37 60 -69 33 -32 60 -62 60 -65 0 -4 14 -20 30 -36 17 -16 30 -34 30 -40 0 -5 6 -10 14 -10 7 0 17 -8 20 -17 11 -32 32 -62 59 -87 15 -14 27 -31 27 -38 0 -8 8 -21 18 -30 29 -28 49 -59 83 -128 13 -25 28 -48 35 -52 6 -4 15 -19 18 -33 4 -14 11 -25 16 -25 6 0 10 -6 10 -14 0 -7 7 -19 15 -26 8 -7 15 -21 15 -32 0 -10 7 -21 15 -24 8 -4 15 -16 15 -29 0 -12 7 -28 15 -35 8 -7 15 -20 15 -29 0 -10 7 -26 15 -37 8 -10 15 -26 15 -35 0 -9 7 -22 15 -29 8 -7 15 -23 15 -35 0 -12 7 -28 15 -35 8 -7 15 -25 15 -40 0 -15 7 -33 15 -40 8 -7 15 -22 15 -34 1 -11 7 -32 15 -46 8 -14 14 -36 15 -50 0 -14 7 -38 15 -54 8 -15 15 -40 15 -55 0 -14 7 -35 15 -45 8 -11 15 -31 15 -44 0 -13 6 -38 14 -55 8 -18 17 -56 20 -86 3 -30 10 -59 16 -65 5 -5 10 -30 10 -54 0 -24 5 -53 12 -65 6 -12 14 -77 18 -144 4 -67 12 -128 18 -135 14 -18 16 -457 2 -494 -6 -14 -13 -58 -16 -97 -3 -40 -12 -91 -20 -115 -8 -23 -14 -58 -14 -77 0 -19 -4 -35 -10 -35 -5 0 -12 -17 -15 -37 -3 -21 -10 -45 -15 -54 -5 -9 -12 -33 -16 -54 -3 -20 -20 -61 -35 -91 -16 -29 -29 -63 -29 -74 0 -11 -4 -20 -10 -20 -5 0 -10 -4 -10 -9 0 -14 -18 -52 -40 -86 -11 -16 -24 -39 -30 -50 -6 -11 -19 -33 -30 -50 -11 -16 -24 -40 -30 -52 -5 -13 -14 -23 -19 -23 -5 0 -11 -8 -15 -17 -10 -30 -39 -68 -113 -149 -18 -19 -33 -39 -33 -43 0 -5 -7 -11 -15 -15 -8 -3 -15 -12 -15 -21 0 -8 -4 -15 -10 -15 -5 0 -46 -37 -92 -81 -46 -45 -99 -93 -118 -107 -19 -14 -46 -37 -60 -52 -14 -14 -37 -31 -52 -37 -16 -7 -28 -17 -28 -23 0 -5 -6 -10 -12 -10 -7 0 -29 -14 -48 -30 -19 -16 -41 -30 -47 -30 -7 0 -13 -4 -13 -10 0 -5 -7 -10 -15 -10 -8 0 -15 -4 -15 -10 0 -5 -7 -10 -15 -10 -8 0 -15 -4 -15 -9 0 -5 -13 -12 -29 -16 -15 -3 -37 -14 -47 -23 -11 -9 -35 -24 -54 -34 -101 -48 -192 -88 -200 -88 -5 0 -15 -6 -22 -14 -8 -7 -46 -24 -86 -36 -40 -13 -72 -27 -72 -31 0 -5 -7 -6 -15 -3 -8 4 -15 1 -15 -5 0 -6 -10 -11 -23 -11 -13 0 -62 -13 -110 -29 -48 -17 -109 -33 -135 -36 -26 -4 -62 -11 -80 -17 -33 -10 -42 -12 -117 -22 -22 -3 -53 -8 -70 -11 -91 -15 -249 -26 -390 -25 -231 0 -319 10 -447 51 -51 16 -99 29 -106 29 -22 0 -242 110 -303 152 -31 21 -59 38 -62 38 -3 0 -16 9 -29 20 -21 18 -44 36 -143 115 -20 17 -42 36 -49 43 -41 47 -126 140 -153 169 -18 18 -33 38 -33 43 0 6 -14 23 -30 38 -17 16 -30 36 -30 44 0 7 -13 25 -30 38 -16 14 -29 33 -30 43 0 10 -7 20 -15 23 -8 4 -15 13 -15 20 0 8 -27 61 -59 117 -33 56 -62 117 -66 135 -4 17 -11 32 -16 32 -5 0 -9 11 -9 24 0 13 -7 29 -15 36 -8 7 -15 28 -15 46 0 24 -5 34 -15 34 -9 0 -15 9 -15 24 0 14 -5 28 -11 31 -6 4 -8 13 -5 20 2 7 0 17 -6 23 -6 6 -11 24 -10 41 0 16 -6 35 -14 42 -8 6 -14 29 -14 50 0 21 -5 41 -10 44 -6 4 -8 11 -5 16 4 5 1 9 -4 9 -7 0 -11 22 -11 53 0 29 -5 58 -11 64 -9 9 -23 86 -32 178 -1 11 -6 25 -10 32 -4 6 -7 123 -7 259 0 207 2 250 15 264 9 10 15 36 15 66 0 27 7 62 15 78 8 16 16 44 18 62 1 19 8 36 15 39 6 2 12 17 12 33 0 16 7 35 15 42 8 7 15 21 15 31 0 9 6 24 13 31 6 7 21 29 31 48 11 19 25 39 33 43 7 4 13 17 13 28 0 11 7 22 15 25 8 4 15 15 15 25 0 10 7 19 15 19 8 0 15 6 15 14 0 8 7 16 15 20 8 3 15 11 15 17 0 11 186 199 196 199 5 0 99 71 127 95 9 8 22 15 27 15 6 0 18 8 28 18 9 9 42 29 72 44 30 15 66 34 80 42 68 40 200 96 223 96 15 0 27 4 27 9 0 10 4 11 160 53 169 44 176 46 290 58 164 18 364 20 455 4 82 -14 257 -71 263 -86 2 -4 8 -8 14 -8 10 0 90 -53 119 -79 75 -69 90 -81 99 -81 5 0 10 -6 10 -14 0 -7 14 -23 30 -36 17 -13 30 -29 30 -37 0 -7 7 -16 15 -19 8 -4 15 -11 15 -18 0 -6 14 -26 30 -44 17 -18 30 -40 30 -48 0 -8 7 -17 15 -20 8 -4 15 -14 15 -25 0 -10 6 -22 13 -26 6 -4 22 -30 35 -58 13 -27 27 -58 33 -67 5 -10 9 -26 9 -37 0 -10 6 -21 14 -24 7 -3 16 -18 19 -34 11 -57 29 -119 43 -146 8 -16 14 -40 14 -54 0 -14 6 -39 14 -56 12 -27 17 -59 28 -167 0 -8 5 -18 10 -21 5 -3 10 -103 10 -221 1 -189 -1 -218 -15 -233 -10 -9 -17 -29 -17 -45 0 -16 -7 -30 -15 -34 -8 -3 -15 -14 -15 -25 0 -11 -14 -35 -30 -53 -17 -18 -30 -38 -30 -45 0 -7 -7 -13 -15 -13 -8 0 -15 -3 -15 -7 0 -13 -67 -82 -74 -76 -3 3 -8 -2 -12 -11 -3 -9 -12 -16 -19 -16 -7 0 -15 -3 -17 -7 -8 -19 -168 -96 -258 -125 -36 -12 -67 -24 -70 -28 -5 -7 -140 -38 -201 -45 -16 -2 -33 -6 -37 -8 -12 -8 -163 -20 -247 -21 -71 -1 -86 2 -139 30 -33 17 -62 38 -65 45 -3 8 -17 26 -30 42 -25 27 -45 73 -61 136 -5 18 -13 38 -19 44 -6 6 -11 26 -11 44 0 19 -7 50 -15 70 -8 19 -15 55 -15 80 0 30 5 45 15 49 8 4 15 15 15 25 0 11 7 22 15 25 8 4 15 12 15 20 0 8 4 14 8 14 5 0 21 13 38 28 16 15 41 35 56 45 40 25 178 59 214 53 35 -7 110 16 134 42 9 9 33 28 53 42 20 14 37 30 37 36 0 6 7 17 15 24 8 7 15 21 15 32 0 10 7 32 14 47 8 15 16 39 18 53 2 14 9 32 15 39 17 21 9 167 -10 185 -4 4 -7 15 -7 25 0 9 -7 19 -15 23 -8 3 -15 16 -15 29 0 25 -28 57 -48 57 -7 0 -12 9 -12 20 0 11 -6 20 -14 20 -8 0 -17 8 -21 19 -5 18 -55 44 -110 57 -101 23 -268 30 -325 13 -25 -7 -49 -14 -55 -14 -5 -1 -26 -5 -45 -10 -19 -5 -41 -8 -47 -6 -7 1 -13 -3 -13 -9 0 -6 -5 -8 -10 -5 -6 4 -30 -3 -53 -14 -23 -11 -61 -25 -84 -31 -24 -6 -49 -17 -55 -25 -7 -8 -39 -22 -70 -31 -32 -9 -58 -21 -58 -25 0 -5 -7 -9 -15 -9 -8 0 -15 -4 -15 -10 0 -5 -7 -10 -15 -10 -8 0 -15 -4 -15 -10 0 -5 -7 -10 -15 -10 -8 0 -15 -3 -15 -7 0 -5 -14 -17 -30 -28 -16 -11 -30 -24 -30 -30 -1 -5 -14 -21 -30 -35 -17 -13 -30 -28 -30 -33 0 -5 -13 -26 -30 -47 -16 -21 -30 -45 -30 -53 0 -9 -4 -18 -9 -22 -5 -3 -13 -20 -16 -38 -4 -17 -13 -43 -20 -57 -12 -24 -27 -135 -25 -195 3 -177 13 -325 22 -347 5 -15 8 -34 4 -43 -3 -8 -2 -15 3 -15 4 0 11 -25 14 -56 3 -30 10 -61 15 -67 5 -7 12 -34 15 -62 3 -27 10 -51 16 -53 6 -2 11 -18 11 -37 0 -18 7 -38 15 -45 8 -7 15 -22 15 -34 0 -11 7 -34 15 -50 8 -15 15 -35 15 -42 0 -8 7 -17 15 -20 8 -4 15 -16 15 -29 0 -12 6 -28 14 -34 8 -7 17 -23 20 -36 4 -14 11 -25 16 -25 6 0 10 -7 10 -15 0 -9 7 -18 15 -21 8 -4 15 -13 15 -20 0 -8 7 -17 15 -20 8 -4 15 -12 15 -20 0 -17 151 -174 168 -174 7 0 12 -7 12 -15 0 -8 5 -15 11 -15 5 0 39 -18 75 -39 36 -22 79 -43 95 -46 16 -4 29 -10 29 -14 0 -7 41 -20 155 -50 57 -15 211 -31 243 -26 15 3 70 7 122 10 52 2 109 6 125 9 17 2 48 7 70 10 130 19 232 38 249 47 10 6 30 13 43 15 46 9 278 87 281 96 2 4 8 8 13 8 16 0 101 42 157 77 28 19 52 31 52 27 0 -3 19 8 42 25 23 17 46 31 50 31 4 0 16 8 26 17 35 33 62 53 72 53 6 0 10 7 10 15 0 8 7 15 15 15 8 0 15 3 15 8 0 4 14 16 30 27 16 11 30 26 30 33 0 6 6 12 13 12 6 0 23 16 36 35 13 19 27 35 32 35 5 0 9 5 9 10 0 11 10 24 43 61 9 10 17 23 17 28 0 5 7 11 15 15 8 3 15 12 15 19 0 8 7 20 15 27 8 7 15 20 15 30 0 10 7 20 15 24 8 3 15 14 15 24 0 11 7 25 15 32 8 7 15 23 15 35 0 13 7 25 15 29 8 3 15 16 15 30 0 13 7 37 15 52 8 16 15 39 15 51 0 12 5 25 11 28 6 4 8 13 5 21 -3 7 -1 16 4 19 6 4 10 21 10 38 1 18 7 55 15 82 18 64 13 515 -6 515 -3 0 -7 24 -8 53 -2 61 -5 81 -20 120 -6 16 -11 53 -11 83 0 39 -4 56 -15 60 -10 4 -15 21 -15 53 0 26 -7 56 -15 67 -8 10 -15 29 -15 40 0 12 -7 35 -15 50 -8 16 -15 39 -15 51 0 12 -7 28 -15 36 -8 8 -16 33 -17 56 -2 25 -8 41 -15 41 -7 0 -13 11 -13 24 0 13 -7 29 -15 36 -8 7 -15 23 -15 36 0 12 -4 25 -9 28 -10 7 -45 78 -56 114 -3 12 -11 22 -16 22 -5 0 -9 9 -9 20 0 11 -7 23 -15 26 -8 4 -15 12 -15 19 0 8 -6 20 -12 27 -17 19 -36 48 -48 76 -5 12 -14 22 -20 22 -5 0 -10 9 -10 19 0 10 -7 21 -15 25 -8 3 -15 12 -15 21 0 8 -7 15 -15 15 -8 0 -15 7 -15 15 0 8 -5 15 -10 15 -6 0 -14 8 -17 18 -4 9 -20 31 -37 47 -17 17 -40 42 -52 55 -35 41 -133 130 -144 130 -6 0 -10 6 -10 13 -1 13 -148 117 -168 117 -6 0 -12 4 -12 8 0 5 -26 22 -57 38 -32 16 -60 32 -63 35 -3 3 -23 12 -45 19 -22 7 -45 16 -51 21 -14 11 -79 35 -179 65 -110 33 -404 65 -543 59 -145 -6 -336 -23 -394 -35 -101 -21 -156 -34 -248 -57 -204 -53 -246 -65 -296 -89 -28 -13 -57 -24 -65 -24 -8 0 -28 -9 -46 -19 -17 -11 -50 -25 -72 -32 -23 -7 -41 -16 -41 -20 0 -5 -7 -6 -15 -3 -8 4 -15 2 -15 -2 0 -5 -20 -18 -45 -29 -25 -11 -45 -23 -45 -27 0 -5 -7 -8 -15 -8 -8 0 -15 -4 -15 -9 0 -4 -20 -16 -45 -25 -25 -10 -45 -21 -45 -25 0 -4 -20 -18 -45 -31 -25 -13 -45 -27 -45 -32 0 -4 -7 -8 -15 -8 -8 0 -15 -4 -15 -10 0 -5 -7 -10 -15 -10 -8 0 -15 -4 -15 -10 0 -5 -4 -10 -10 -10 -10 0 -37 -20 -72 -52 -10 -10 -20 -18 -23 -18 -3 0 -16 -11 -29 -25 -13 -14 -26 -25 -29 -25 -3 0 -30 -25 -61 -55 -30 -30 -59 -55 -65 -55 -6 0 -11 -4 -11 -8 0 -5 -13 -22 -30 -38 -16 -16 -30 -33 -30 -39 -1 -5 -14 -21 -30 -35 -17 -13 -30 -30 -30 -37 0 -7 -3 -13 -8 -13 -12 0 -112 -138 -112 -154 0 -8 -7 -16 -15 -20 -8 -3 -15 -12 -15 -20 0 -7 -7 -16 -15 -20 -8 -3 -15 -12 -15 -20 0 -8 -6 -19 -12 -23 -16 -10 -48 -69 -48 -88 0 -7 -7 -18 -15 -25 -8 -7 -15 -20 -15 -30 0 -10 -7 -23 -15 -30 -8 -7 -15 -23 -15 -35 0 -13 -7 -25 -15 -29 -8 -3 -15 -18 -15 -33 0 -15 -7 -37 -15 -47 -8 -11 -15 -34 -15 -50 0 -17 -7 -40 -15 -50 -8 -11 -15 -32 -15 -47 0 -15 -5 -29 -12 -31 -6 -2 -13 -32 -16 -69 -3 -35 -10 -67 -16 -71 -6 -4 -12 -47 -14 -103 -2 -53 -9 -107 -15 -119 -10 -18 -14 -205 -8 -351 1 -11 1 -38 1 -59 0 -21 4 -44 9 -50 5 -6 11 -60 14 -121 3 -60 10 -123 16 -140 5 -16 12 -54 14 -83 3 -29 9 -58 15 -65 6 -7 12 -35 13 -62 1 -28 7 -53 12 -56 5 -4 13 -28 18 -55 5 -27 13 -58 18 -69 9 -22 29 -94 38 -137 3 -15 11 -33 19 -39 8 -6 14 -21 14 -33 0 -12 7 -31 15 -42 8 -10 15 -29 15 -41 0 -13 5 -23 11 -23 5 0 8 -4 4 -9 -3 -5 -1 -12 5 -16 5 -3 10 -17 10 -29 0 -13 7 -29 15 -36 8 -7 15 -23 15 -37 0 -13 7 -26 15 -29 8 -4 15 -18 15 -34 0 -15 7 -33 15 -40 8 -7 15 -20 15 -30 0 -10 7 -20 15 -24 8 -3 15 -17 15 -31 0 -14 4 -25 9 -25 5 0 21 -24 35 -54 14 -30 31 -58 36 -61 6 -3 10 -15 10 -26 0 -11 7 -22 15 -25 8 -4 15 -15 15 -25 0 -11 7 -22 15 -25 8 -4 15 -15 15 -25 0 -10 6 -19 14 -19 8 0 17 -11 20 -25 4 -14 11 -25 16 -25 6 0 10 -7 10 -15 0 -9 7 -18 15 -21 8 -4 15 -15 15 -25 0 -10 7 -19 15 -19 8 0 15 -9 15 -20 0 -11 6 -20 14 -20 8 0 17 -9 21 -20 3 -11 17 -28 29 -38 13 -10 26 -28 30 -40 4 -12 11 -22 16 -22 5 0 12 -9 15 -21 4 -11 9 -18 12 -15 7 7 103 -86 103 -100 0 -7 11 -19 25 -28 13 -9 37 -28 54 -44 16 -15 54 -47 85 -72 32 -25 69 -55 84 -67 15 -13 30 -23 34 -23 4 0 18 -10 32 -23 13 -12 41 -31 63 -42 21 -11 44 -25 51 -32 7 -7 28 -20 47 -29 19 -9 35 -20 35 -25 0 -5 5 -9 11 -9 16 0 109 -44 109 -51 0 -4 20 -13 45 -20 25 -7 45 -17 45 -21 0 -4 7 -8 15 -8 8 0 15 -4 15 -9 0 -5 24 -15 53 -22 28 -6 59 -16 67 -20 119 -61 515 -130 760 -132 59 0 273 11 330 18 237 28 301 37 349 49 31 8 90 20 131 27 41 7 86 18 100 24 14 7 50 18 80 25 30 6 64 16 75 21 41 19 169 57 177 53 4 -3 8 0 8 5 0 6 7 11 15 11 8 0 15 5 15 11 0 5 4 8 9 4 5 -3 12 -1 15 4 3 4 25 11 48 15 23 4 45 10 48 14 7 10 87 47 135 63 22 8 42 16 45 19 6 6 93 52 162 87 26 13 50 28 53 33 3 5 23 17 43 27 20 9 46 25 56 35 11 10 26 18 33 18 7 0 13 3 13 8 0 4 12 13 28 19 25 12 43 25 110 83 13 11 28 20 33 20 5 0 9 5 9 10 0 6 7 10 15 10 8 0 15 4 15 8 0 4 14 16 30 26 17 9 41 27 55 39 13 12 43 38 66 57 69 59 179 166 179 176 0 5 14 18 30 29 16 11 30 25 30 30 1 6 14 21 30 35 17 13 30 30 30 37 0 7 5 13 10 13 17 0 58 49 79 95 5 11 21 29 35 39 14 10 26 27 26 36 0 10 7 20 15 24 8 3 15 11 15 18 0 7 14 26 30 42 17 16 30 38 30 48 0 10 4 18 9 18 5 0 20 21 32 48 13 26 29 53 36 60 7 7 13 20 13 28 0 8 7 17 15 20 8 4 15 16 15 29 0 12 7 28 15 35 8 7 15 20 15 30 0 10 7 23 15 30 8 7 15 23 15 35 0 12 7 28 15 35 8 7 15 21 15 32 0 11 7 26 15 34 8 9 15 25 15 37 0 12 7 31 15 41 8 11 15 30 15 43 0 12 6 37 14 55 8 18 18 50 21 71 3 20 10 37 15 37 6 0 10 11 10 24 0 13 7 40 15 59 8 20 15 52 15 71 0 19 5 38 10 41 6 4 8 11 4 16 -3 5 -2 15 4 22 5 7 10 36 11 65 1 29 8 68 15 85 8 20 14 88 15 177 2 86 7 147 13 151 7 4 7 9 0 13 -6 3 -10 91 -11 218 -1 117 -6 217 -10 223 -5 5 -9 24 -8 40 0 17 -3 37 -6 45 -4 8 -8 54 -10 102 -2 47 -8 92 -14 100 -6 7 -13 40 -15 73 -2 33 -9 65 -15 70 -7 6 -13 38 -14 77 -1 46 -6 69 -15 72 -8 3 -14 14 -14 25 0 11 -5 32 -12 48 -6 15 -13 39 -15 53 -3 25 -26 110 -45 165 -5 17 -12 41 -15 55 -3 14 -11 32 -18 40 -7 8 -15 33 -18 54 -4 22 -10 42 -15 45 -5 3 -12 23 -16 44 -4 20 -11 37 -15 37 -5 0 -12 16 -15 35 -4 19 -12 35 -18 35 -6 0 -9 3 -5 6 6 6 -12 65 -22 74 -10 8 -51 96 -51 109 0 6 -4 11 -9 11 -5 0 -12 14 -16 30 -4 17 -11 30 -16 30 -5 0 -9 11 -9 24 0 14 -4 27 -9 31 -6 3 -21 30 -36 60 -14 30 -30 55 -35 55 -6 0 -10 9 -10 20 0 11 -7 23 -15 26 -8 4 -15 12 -15 19 0 7 -7 18 -15 25 -8 7 -15 20 -15 30 0 10 -7 20 -15 24 -8 3 -15 14 -15 25 0 10 -7 21 -15 25 -8 3 -15 15 -15 26 0 11 -7 20 -15 20 -8 0 -15 7 -15 15 0 8 -5 15 -10 15 -6 0 -15 10 -20 23 -15 35 -33 60 -62 90 -16 15 -28 33 -28 41 0 8 -7 16 -15 20 -8 3 -15 11 -15 19 0 7 -13 24 -30 37 -16 14 -29 30 -30 36 0 6 -13 21 -30 34 -16 13 -30 28 -30 34 0 6 -14 20 -30 31 -16 11 -30 24 -30 29 0 11 -100 106 -111 106 -5 0 -9 6 -9 13 0 6 -14 21 -30 32 -16 11 -30 26 -30 33 0 6 -5 12 -11 12 -6 0 -26 15 -44 33 -47 45 -75 69 -115 97 -19 14 -44 32 -54 42 -11 10 -24 18 -28 18 -5 0 -19 10 -31 23 -12 12 -38 30 -57 41 -19 10 -40 24 -45 31 -6 7 -20 15 -33 19 -12 4 -34 18 -50 30 -15 13 -49 34 -77 47 -27 13 -52 26 -55 29 -3 3 -23 14 -45 25 -22 11 -42 23 -45 27 -3 3 -25 14 -50 23 -69 26 -94 39 -103 52 -4 7 -18 13 -30 13 -13 0 -31 6 -42 13 -20 14 -266 98 -295 101 -8 1 -35 8 -60 16 -25 7 -52 14 -60 15 -8 1 -33 7 -55 13 -40 11 -220 39 -285 45 -20 2 -40 6 -45 9 -43 25 -675 25 -758 -1 -18 -5 -59 -12 -92 -15 -61 -7 -98 -11 -194 -22 -29 -3 -72 -12 -94 -20 -22 -8 -42 -12 -45 -9 -2 2 -12 0 -22 -5 -9 -5 -34 -11 -56 -14 -63 -7 -98 -17 -389 -103 -149 -44 -310 -106 -325 -124 -3 -3 -30 -14 -60 -24 -30 -10 -75 -29 -99 -42 -24 -12 -50 -23 -58 -23 -7 0 -16 -6 -19 -13 -3 -8 -32 -23 -64 -33 -33 -10 -60 -24 -60 -30 0 -7 -20 -18 -45 -25 -25 -7 -45 -17 -45 -21 0 -4 -6 -8 -13 -8 -7 0 -23 -9 -35 -20 -12 -11 -26 -20 -31 -20 -6 0 -22 -11 -37 -25 -15 -14 -31 -25 -36 -25 -5 0 -29 -13 -53 -30 -24 -16 -48 -30 -54 -30 -6 0 -11 -4 -11 -10 0 -5 -6 -10 -12 -10 -7 0 -29 -14 -48 -30 -19 -16 -39 -30 -44 -30 -5 0 -19 -11 -32 -25 -13 -14 -28 -25 -34 -25 -5 0 -10 -4 -10 -10 0 -5 -7 -10 -15 -10 -8 0 -15 -4 -15 -9 0 -5 -20 -21 -45 -35 -25 -15 -45 -30 -45 -35 0 -4 -12 -14 -27 -22 -16 -8 -52 -38 -81 -66 -29 -29 -56 -53 -58 -53 -3 0 -30 -25 -60 -55 -31 -30 -57 -55 -60 -55 -9 0 -44 -35 -44 -45 0 -6 -14 -19 -30 -28 -17 -10 -30 -22 -30 -28 0 -12 -37 -49 -50 -49 -5 0 -10 -6 -10 -12 -1 -7 -14 -24 -30 -38 -17 -13 -30 -28 -30 -32 0 -4 -8 -16 -17 -26 -10 -10 -31 -35 -48 -56 -16 -20 -42 -49 -56 -64 -14 -15 -28 -35 -32 -44 -3 -10 -11 -18 -17 -18 -5 0 -10 -5 -10 -11 0 -6 -6 -17 -12 -24 -29 -32 -36 -42 -42 -62 -4 -12 -13 -24 -21 -27 -8 -3 -15 -12 -15 -21 0 -8 -4 -15 -9 -15 -5 0 -14 -12 -20 -27 -12 -31 -32 -65 -43 -73 -4 -3 -12 -17 -17 -30 -13 -29 -31 -59 -48 -78 -7 -7 -13 -19 -13 -26 0 -8 -7 -19 -15 -26 -8 -7 -15 -20 -15 -30 0 -10 -7 -23 -15 -30 -8 -7 -15 -21 -15 -32 0 -10 -7 -21 -15 -24 -8 -4 -15 -15 -15 -26 0 -11 -7 -26 -15 -34 -8 -9 -15 -26 -15 -39 0 -12 -7 -25 -15 -29 -9 -3 -15 -18 -15 -34 0 -16 -7 -35 -15 -42 -8 -7 -15 -23 -15 -35 0 -12 -7 -28 -15 -35 -8 -7 -15 -27 -15 -45 0 -19 -5 -35 -10 -37 -6 -2 -13 -21 -17 -43 -3 -22 -12 -46 -20 -53 -7 -7 -13 -28 -13 -45 0 -18 -7 -41 -15 -51 -8 -11 -15 -39 -15 -63 0 -30 -5 -45 -15 -49 -11 -4 -15 -21 -15 -59 0 -35 -5 -55 -13 -58 -9 -3 -15 -26 -16 -68 -1 -35 -6 -68 -12 -75 -5 -7 -12 -52 -15 -101 -3 -48 -11 -99 -17 -112 -16 -32 -17 -838 -1 -849 6 -4 11 -32 12 -62 4 -91 14 -180 22 -185 6 -4 10 -49 13 -140 0 -11 5 -23 10 -26 5 -3 12 -36 17 -73 4 -37 13 -72 18 -79 5 -7 12 -30 15 -52 3 -22 7 -47 9 -55 11 -34 18 -67 22 -100 3 -19 10 -36 15 -38 6 -2 11 -21 11 -42 0 -21 6 -43 15 -50 8 -7 15 -27 15 -44 0 -17 7 -41 15 -52 8 -12 15 -39 17 -60 1 -21 8 -45 15 -52 7 -7 13 -26 13 -41 0 -16 7 -34 15 -41 8 -7 15 -22 15 -34 0 -12 7 -31 15 -42 8 -10 15 -29 15 -40 0 -12 7 -27 15 -34 8 -7 15 -19 15 -28 0 -14 26 -79 51 -124 5 -10 9 -27 9 -38 0 -11 7 -23 15 -26 8 -4 15 -14 15 -24 0 -10 7 -23 15 -30 8 -7 15 -23 15 -36 0 -15 6 -24 15 -24 10 0 15 -10 15 -29 0 -16 6 -31 15 -35 8 -3 15 -14 15 -24 0 -11 7 -25 15 -32 8 -7 15 -20 15 -30 0 -10 7 -20 15 -24 8 -3 15 -17 15 -31 0 -14 7 -28 15 -31 8 -4 15 -12 15 -19 0 -8 6 -20 13 -27 16 -19 35 -48 47 -75 5 -13 14 -23 20 -23 5 0 10 -9 10 -19 0 -11 5 -23 11 -26 5 -4 14 -17 20 -28 14 -33 33 -61 47 -70 6 -4 12 -15 12 -23 0 -8 7 -17 15 -20 8 -4 15 -14 15 -24 0 -10 7 -20 15 -24 8 -3 15 -12 15 -20 0 -7 7 -16 15 -20 8 -3 15 -12 15 -21 0 -8 5 -15 10 -15 6 0 15 -11 20 -25 5 -14 14 -25 20 -25 5 0 10 -4 10 -9 0 -6 13 -25 30 -43 16 -18 30 -37 30 -43 1 -5 14 -21 30 -35 17 -13 30 -29 30 -36 0 -7 7 -14 15 -18 8 -3 15 -11 15 -18 0 -7 14 -22 30 -33 16 -11 30 -24 30 -30 1 -5 14 -21 30 -35 17 -13 30 -30 30 -37 0 -7 3 -13 8 -13 4 0 54 -45 110 -100 57 -55 107 -100 112 -100 6 0 10 -6 10 -14 0 -8 13 -23 30 -33 16 -9 30 -21 30 -25 0 -4 5 -8 10 -8 6 0 21 -10 33 -23 12 -12 49 -43 82 -69 33 -26 68 -54 78 -62 9 -9 22 -16 27 -16 6 0 10 -5 10 -10 0 -6 12 -16 28 -23 15 -6 37 -22 48 -34 12 -13 25 -23 30 -23 5 0 29 -16 52 -35 24 -19 52 -37 63 -40 10 -4 19 -11 19 -16 0 -5 7 -9 15 -9 8 0 15 -4 15 -8 0 -5 20 -19 45 -32 25 -13 45 -26 45 -30 0 -5 12 -11 27 -15 15 -3 30 -10 33 -14 3 -4 37 -22 75 -41 39 -19 72 -37 75 -40 3 -3 30 -16 60 -30 30 -14 57 -28 58 -32 2 -5 8 -8 14 -8 11 0 138 -53 178 -74 14 -7 43 -17 65 -21 22 -4 45 -11 52 -17 11 -9 71 -27 268 -81 44 -12 82 -24 85 -27 3 -3 14 -6 25 -8 11 -1 99 -16 195 -32 96 -17 191 -32 210 -35 116 -18 282 -24 555 -20 287 4 344 8 530 40 11 2 65 8 120 14 55 7 127 19 160 28 33 8 69 16 80 18 64 9 155 29 190 41 23 8 50 14 62 14 12 0 32 4 45 9 30 12 237 76 313 97 33 10 65 21 70 25 6 4 27 10 48 14 20 4 37 11 37 15 0 4 19 13 43 19 23 7 65 24 93 37 28 13 56 24 62 24 6 0 12 3 14 8 2 4 23 15 48 24 67 24 154 62 160 69 8 9 96 49 108 49 7 0 12 5 12 10 0 6 7 10 15 10 8 0 15 4 15 8 0 5 18 15 40 22 23 8 44 19 48 25 4 7 36 26 72 44 81 39 131 69 145 86 5 7 26 20 46 29 20 10 45 25 56 35 11 10 28 21 39 25 10 3 30 16 44 28 14 13 37 29 53 37 15 8 27 18 27 23 0 4 4 8 10 8 10 0 31 15 77 56 13 12 39 32 58 45 19 13 35 27 35 32 0 4 5 7 12 7 7 0 26 13 42 29 17 16 48 45 69 65 21 20 41 36 45 36 11 0 102 85 102 96 0 5 14 15 30 22 17 8 30 18 30 23 0 12 37 49 50 49 6 0 10 4 10 9 0 14 92 101 107 101 7 0 13 8 13 18 0 10 28 47 63 84 74 79 97 105 119 139 9 14 31 41 50 59 30 30 45 51 64 88 4 8 20 28 35 45 16 17 29 37 29 44 0 7 5 13 10 13 6 0 15 11 20 25 5 14 14 25 20 25 5 0 10 9 10 20 0 11 7 23 15 26 8 4 15 12 15 20 0 8 8 23 18 33 34 38 42 50 42 65 0 7 7 16 15 20 8 3 15 12 15 19 0 8 7 20 15 27 8 7 15 21 15 32 0 10 7 21 15 24 8 4 15 14 15 24 0 10 7 23 15 30 8 7 15 18 15 25 0 7 7 18 15 25 8 7 15 21 15 32 0 10 7 21 15 24 8 4 15 14 15 23 0 9 7 25 15 35 8 11 15 27 15 37 0 9 7 22 15 29 8 7 15 23 15 36 0 13 4 24 9 24 5 0 13 10 17 23 3 12 19 50 35 84 16 34 29 69 29 78 0 9 7 23 15 31 8 9 15 28 15 43 0 16 7 34 15 41 8 7 15 23 15 36 0 12 4 25 9 28 5 4 12 25 16 48 4 24 14 53 22 65 9 13 13 23 10 23 -3 0 3 24 14 52 10 29 19 69 19 89 0 20 7 42 15 49 8 7 15 29 15 49 1 20 7 47 15 61 8 14 14 49 15 78 0 29 7 69 15 89 8 19 15 55 15 78 0 24 6 70 14 102 8 32 17 113 20 181 3 67 10 131 16 142 8 14 8 20 0 20 -7 0 -8 6 -1 18 11 21 9 511 -2 530 -5 7 -3 12 3 12 6 0 8 5 3 13 -4 6 -9 23 -10 37 -5 49 -12 156 -15 237 -2 47 -7 83 -13 83 -6 0 -11 36 -13 83 -2 45 -10 101 -18 125 -7 23 -14 66 -14 95 0 29 -5 58 -11 64 -6 6 -14 37 -19 69 -8 64 -23 133 -46 205 -8 26 -14 65 -14 87 0 22 -6 47 -13 54 -8 7 -17 31 -21 53 -4 22 -13 46 -18 53 -6 7 -8 15 -5 18 3 3 -4 30 -14 59 -10 30 -19 63 -19 73 0 10 -7 27 -15 38 -8 10 -15 31 -15 45 0 15 -7 29 -15 33 -8 3 -15 17 -15 31 0 14 -7 42 -15 62 -8 19 -15 46 -15 58 0 13 -7 25 -15 29 -9 3 -15 18 -15 34 0 16 -7 35 -15 42 -8 7 -15 21 -15 31 0 11 -13 45 -29 77 -16 31 -43 89 -61 127 -17 39 -36 77 -41 85 -5 8 -12 22 -15 30 -3 8 -12 27 -20 42 -8 14 -14 33 -14 42 0 9 -7 19 -15 22 -8 4 -15 17 -15 30 0 12 -6 27 -13 31 -7 4 -30 43 -51 86 -21 42 -42 77 -47 77 -5 0 -9 9 -9 20 0 11 -7 23 -15 26 -8 4 -15 15 -15 25 0 11 -7 22 -15 25 -8 4 -15 15 -15 25 0 11 -7 22 -15 25 -8 4 -15 14 -15 24 0 10 -7 23 -15 30 -8 7 -15 19 -15 27 0 7 -7 16 -15 19 -8 4 -15 11 -15 18 0 6 -13 26 -29 44 -16 17 -32 41 -36 52 -3 11 -10 20 -15 20 -4 0 -10 8 -14 18 -8 24 -29 56 -43 65 -7 4 -13 15 -13 22 0 8 -7 15 -15 15 -8 0 -15 7 -15 15 0 9 -7 18 -15 21 -8 4 -15 13 -15 20 0 8 -7 17 -15 20 -8 4 -15 13 -15 21 0 15 -16 35 -82 105 -21 21 -38 43 -38 48 0 6 -7 10 -15 10 -8 0 -15 5 -15 11 0 16 -60 89 -142 172 -38 38 -68 71 -68 74 0 2 -13 16 -30 30 -16 13 -30 31 -30 39 0 8 -7 14 -15 14 -8 0 -15 5 -15 10 0 6 -7 10 -15 10 -8 0 -15 5 -15 11 0 10 -66 79 -75 79 -2 0 -23 19 -47 43 -47 45 -125 110 -139 115 -5 2 -9 10 -9 18 0 8 -7 14 -15 14 -8 0 -15 5 -15 10 0 6 -6 10 -14 10 -8 0 -16 3 -18 8 -1 4 -28 27 -58 52 -30 24 -56 48 -58 52 -2 5 -9 8 -16 8 -7 0 -21 9 -31 20 -10 11 -24 20 -32 20 -7 0 -13 5 -13 10 0 6 -7 10 -15 10 -8 0 -15 6 -15 13 0 6 -19 21 -42 32 -23 11 -53 30 -66 42 -13 12 -34 25 -46 29 -11 4 -23 10 -26 15 -6 8 -94 60 -250 145 -14 8 -31 14 -37 14 -7 0 -13 5 -13 10 0 6 -7 10 -15 10 -8 0 -15 4 -15 8 0 5 -19 17 -42 27 -55 22 -137 59 -213 95 -158 76 -519 201 -620 215 -27 4 -54 11 -60 15 -10 8 -160 40 -255 56 -25 4 -52 9 -60 10 -131 26 -168 31 -305 44 -60 5 -157 15 -215 20 -98 10 -512 7 -625 -4 -27 -2 -86 -7 -130 -10 -104 -8 -336 -36 -345 -41 -4 -3 -22 -7 -41 -10 -89 -14 -109 -18 -184 -32 -44 -8 -98 -19 -120 -24 -22 -5 -74 -15 -115 -23 -41 -8 -100 -24 -130 -35 -30 -12 -63 -21 -73 -21 -26 0 -326 -100 -333 -111 -3 -5 -15 -9 -27 -9 -23 0 -119 -31 -127 -41 -3 -3 -23 -12 -45 -19 -22 -7 -63 -23 -92 -36 -28 -13 -55 -24 -59 -24 -11 0 -129 -54 -134 -61 -3 -4 -18 -11 -33 -14 -15 -4 -27 -11 -27 -16 0 -5 -3 -8 -7 -7 -14 4 -315 -141 -321 -154 -2 -5 -8 -8 -14 -8 -5 0 -22 -8 -36 -19 -15 -10 -54 -33 -87 -51 -97 -53 -99 -55 -111 -65 -6 -5 -34 -21 -62 -35 -29 -14 -52 -29 -52 -35 0 -5 -20 -19 -43 -29 -23 -11 -50 -27 -60 -36 -9 -9 -29 -23 -44 -31 -15 -8 -35 -21 -44 -30 -9 -9 -30 -22 -47 -30 -18 -8 -32 -20 -32 -26 0 -7 -7 -13 -15 -13 -8 0 -15 -4 -15 -10 0 -5 -5 -10 -11 -10 -11 0 -102 -69 -107 -82 -2 -5 -8 -8 -13 -8 -6 0 -19 -9 -31 -20 -12 -11 -28 -20 -35 -20 -7 0 -13 -7 -13 -15 0 -8 -4 -15 -9 -15 -4 0 -20 -11 -35 -25 -16 -14 -39 -33 -52 -42 -13 -8 -24 -22 -24 -29 0 -8 -7 -14 -15 -14 -8 0 -15 -4 -15 -10 0 -5 -7 -10 -15 -10 -8 0 -15 -4 -15 -10 0 -5 -7 -10 -15 -10 -8 0 -15 -4 -15 -9 0 -9 -68 -81 -76 -81 -9 0 -164 -146 -164 -154 0 -10 -39 -46 -50 -46 -5 0 -10 -6 -10 -13 0 -7 -13 -21 -30 -30 -16 -10 -30 -23 -30 -28 0 -5 -14 -23 -30 -39 -17 -16 -30 -33 -30 -37 -1 -4 -14 -19 -30 -33 -17 -13 -30 -28 -30 -33 0 -4 -20 -28 -45 -54 -25 -25 -45 -50 -45 -57 -1 -6 -14 -22 -30 -36 -17 -13 -30 -29 -30 -36 0 -7 -7 -14 -15 -18 -8 -3 -15 -10 -15 -15 0 -5 -13 -23 -30 -39 -16 -17 -30 -38 -30 -46 0 -9 -5 -16 -10 -16 -6 0 -15 -11 -20 -25 -5 -14 -14 -25 -20 -25 -5 0 -10 -7 -10 -16 0 -10 -6 -14 -15 -10 -11 4 -15 -1 -15 -19 0 -13 -5 -27 -11 -30 -5 -4 -14 -17 -20 -28 -12 -29 -29 -54 -57 -85 -12 -14 -25 -36 -28 -48 -3 -12 -12 -25 -20 -28 -8 -3 -14 -14 -14 -25 0 -10 -7 -21 -15 -25 -8 -3 -15 -13 -15 -21 0 -9 -7 -23 -15 -31 -8 -9 -15 -24 -15 -34 0 -10 -7 -20 -15 -24 -8 -3 -15 -12 -15 -21 0 -8 -3 -15 -8 -15 -4 0 -18 -24 -32 -52 -13 -29 -30 -59 -37 -66 -7 -7 -13 -22 -13 -32 0 -10 -7 -20 -15 -24 -8 -3 -15 -17 -15 -31 0 -14 -4 -25 -10 -25 -5 0 -12 -11 -16 -25 -3 -14 -10 -25 -15 -25 -5 0 -9 -5 -9 -11 0 -5 -11 -35 -25 -65 -14 -30 -25 -57 -25 -59 0 -7 -49 -117 -65 -147 -8 -14 -15 -37 -15 -51 0 -13 -7 -30 -15 -37 -8 -7 -15 -22 -15 -34 0 -11 -7 -30 -15 -40 -8 -11 -15 -31 -15 -44 0 -13 -7 -30 -15 -38 -8 -9 -15 -30 -15 -49 0 -18 -6 -46 -14 -62 -21 -43 -38 -94 -44 -133 -2 -19 -11 -44 -18 -55 -8 -11 -14 -36 -14 -56 0 -20 -7 -50 -15 -65 -8 -16 -15 -45 -15 -65 0 -20 -7 -50 -15 -65 -8 -16 -15 -50 -15 -75 0 -26 -6 -58 -13 -72 -8 -15 -15 -54 -16 -87 -1 -34 -6 -72 -11 -84 -8 -21 -14 -64 -25 -184 -3 -30 -7 -58 -11 -63 -11 -18 -14 -122 -14 -499 -1 -379 5 -545 20 -565 4 -5 10 -57 13 -115 3 -58 11 -121 17 -140 5 -19 10 -58 10 -87 0 -29 6 -70 14 -90 8 -21 17 -65 20 -97 3 -33 10 -64 16 -70 5 -5 10 -31 10 -57 0 -26 7 -63 15 -82 8 -20 15 -51 15 -69 0 -18 7 -46 15 -62 8 -15 15 -42 15 -60 1 -17 7 -42 15 -56 8 -14 14 -41 15 -61 0 -19 7 -44 15 -55 8 -10 15 -36 15 -57 0 -24 5 -40 15 -43 9 -4 15 -19 15 -38 0 -17 7 -44 15 -60 8 -15 15 -39 15 -51 0 -13 7 -30 15 -39 8 -8 15 -25 15 -38 0 -13 7 -33 15 -44 8 -10 15 -31 15 -45 0 -15 7 -32 15 -39 8 -7 15 -22 15 -34 0 -11 7 -30 15 -40 8 -11 15 -30 15 -42 0 -13 7 -29 15 -38 8 -8 15 -30 15 -49 0 -22 6 -37 15 -41 8 -3 15 -14 15 -24 0 -10 7 -27 15 -38 8 -10 15 -26 15 -35 0 -9 7 -22 15 -29 8 -7 15 -21 15 -31 0 -11 9 -36 20 -56 11 -21 20 -43 20 -50 0 -7 4 -13 9 -13 5 0 11 -12 14 -27 3 -16 17 -45 31 -66 14 -21 26 -44 26 -51 0 -8 7 -19 15 -26 8 -7 15 -20 15 -30 0 -10 7 -23 15 -30 8 -7 15 -20 15 -30 0 -10 7 -23 15 -30 8 -7 15 -18 15 -25 0 -7 7 -18 15 -25 8 -7 15 -21 15 -31 0 -11 7 -19 15 -19 9 0 15 -9 15 -25 0 -14 7 -28 15 -31 8 -4 15 -14 15 -24 0 -15 49 -100 80 -137 6 -7 10 -17 10 -23 0 -6 7 -13 15 -16 8 -4 15 -15 15 -25 0 -10 4 -19 9 -19 10 0 32 -35 52 -83 6 -15 15 -27 20 -27 5 0 9 -7 9 -15 0 -7 6 -18 13 -22 14 -9 35 -40 43 -65 3 -9 12 -19 20 -22 8 -3 14 -14 14 -24 0 -10 13 -29 30 -42 16 -14 29 -31 30 -38 0 -7 7 -15 15 -18 8 -4 15 -15 15 -25 0 -10 7 -19 15 -19 8 0 15 -7 15 -15 0 -9 7 -18 15 -21 8 -4 15 -11 15 -18 0 -6 9 -19 20 -29 11 -9 20 -23 20 -30 0 -7 11 -21 25 -31 14 -10 25 -27 25 -37 0 -11 7 -19 15 -19 8 0 15 -3 15 -8 0 -4 17 -26 38 -49 92 -102 112 -125 112 -128 0 -2 27 -31 60 -64 33 -33 60 -65 60 -71 0 -5 4 -10 10 -10 13 0 140 -128 140 -140 0 -6 4 -10 9 -10 4 0 34 -25 65 -55 31 -30 58 -55 61 -55 3 0 23 -18 45 -40 22 -22 42 -40 45 -40 3 0 16 -11 29 -25 13 -14 26 -25 30 -25 6 0 43 -30 72 -57 7 -7 15 -13 19 -13 3 0 16 -11 29 -25 13 -14 28 -25 35 -25 6 0 11 -4 11 -10 0 -5 5 -10 10 -10 6 0 21 -11 34 -25 13 -14 28 -25 35 -25 6 0 11 -4 11 -10 0 -5 7 -10 15 -10 8 0 15 -5 15 -10 0 -6 12 -16 27 -23 15 -6 35 -18 43 -25 23 -21 100 -75 134 -96 17 -10 33 -21 36 -25 3 -4 24 -16 47 -27 23 -10 43 -25 43 -31 0 -7 6 -13 14 -13 8 0 16 -3 18 -7 3 -8 27 -22 123 -72 28 -14 52 -29 53 -33 2 -5 10 -8 18 -8 8 0 14 -4 14 -9 0 -5 12 -12 27 -16 15 -3 38 -14 52 -24 14 -10 43 -24 64 -32 21 -7 46 -21 57 -31 11 -10 21 -18 24 -18 6 0 109 -47 212 -96 39 -19 79 -34 88 -34 9 0 16 -4 16 -10 0 -5 9 -10 20 -10 11 0 28 -4 38 -10 54 -30 249 -100 278 -100 12 0 24 -4 26 -9 2 -5 39 -19 83 -32 44 -12 102 -30 129 -41 26 -11 64 -20 82 -21 19 -1 34 -5 34 -8 0 -4 26 -10 58 -14 31 -4 62 -11 67 -15 9 -7 234 -50 278 -53 9 -1 17 -5 17 -9 0 -4 8 -6 18 -6 9 0 44 -4 77 -10 67 -13 273 -31 411 -37 50 -3 98 -7 106 -10 16 -6 585 2 623 8 20 4 126 13 259 22 124 8 190 16 286 35 52 10 133 24 180 30 47 6 117 20 155 30 39 11 102 24 140 30 39 6 99 19 135 30 80 24 221 61 238 62 6 1 12 5 12 10 0 4 10 8 23 8 25 0 463 145 481 159 6 4 36 16 66 26 30 9 64 23 75 30 11 6 44 20 73 30 29 9 83 32 120 51 36 19 72 34 79 34 7 0 13 4 13 9 0 5 10 11 23 15 28 7 98 39 152 70 98 56 138 75 146 70 5 -3 9 0 9 5 0 6 7 11 15 11 8 0 15 5 15 10 0 6 7 10 15 10 8 0 15 5 15 10 0 6 7 10 15 10 8 0 23 8 33 18 10 10 24 16 30 14 7 -2 12 0 12 6 0 5 12 14 28 21 15 7 50 28 79 47 28 19 56 34 62 34 6 0 11 5 11 10 0 6 6 10 13 10 7 0 23 9 35 20 12 11 25 20 29 20 12 0 187 120 191 131 2 5 10 9 18 9 8 0 14 5 14 10 0 6 6 10 13 10 7 0 23 9 35 20 12 11 26 20 32 20 5 0 10 5 10 10 0 6 7 10 15 10 8 0 15 4 15 8 0 4 13 15 29 25 16 9 45 33 64 52 19 19 38 35 42 35 4 0 18 11 31 25 13 14 28 25 34 25 5 0 10 3 10 8 0 4 14 13 30 20 17 8 30 20 30 28 0 8 5 14 11 14 6 0 29 18 50 40 22 22 42 40 45 40 3 0 18 12 33 27 46 46 81 73 91 73 6 0 10 5 10 10 0 12 100 110 112 110 4 0 8 6 8 13 1 6 21 27 45 45 25 18 45 38 45 44 0 13 67 78 81 78 5 0 9 3 9 8 0 4 20 29 45 57 25 27 45 53 45 57 0 5 7 8 15 8 8 0 15 4 15 10 0 5 14 24 30 42 17 18 42 45 55 60 14 15 48 55 75 90 27 35 56 70 65 79 8 9 15 18 15 22 0 3 14 21 30 39 17 18 30 36 30 41 0 8 4 14 45 60 14 15 32 41 40 58 9 16 20 29 25 29 6 0 10 6 10 13 1 16 35 57 49 57 6 0 11 11 11 25 0 14 5 25 11 25 5 0 15 14 20 30 6 17 14 30 19 30 4 0 10 8 14 18 3 9 15 31 26 47 11 17 23 38 26 48 4 9 10 17 14 17 9 0 50 66 50 80 0 5 12 28 28 52 47 74 52 82 61 105 6 11 15 24 20 28 6 3 11 17 11 30 0 12 7 25 15 29 8 3 15 12 15 21 0 8 5 15 10 15 6 0 10 8 10 18 0 9 9 32 20 50 11 18 20 39 20 46 0 7 7 19 15 26 8 7 15 23 15 35 0 13 7 25 15 29 8 3 15 12 15 19 0 8 7 20 15 27 8 7 15 27 15 45 0 18 7 38 15 45 8 7 15 23 15 35 0 13 7 25 15 29 8 3 15 16 15 28 0 13 7 32 15 42 8 11 15 30 15 42 0 12 7 27 15 34 8 7 15 25 15 39 0 15 7 36 15 47 8 10 15 28 15 39 0 11 7 29 15 39 8 11 15 27 15 37 0 9 7 30 15 45 8 16 15 38 15 50 0 11 5 25 12 32 7 7 9 12 5 12 -3 0 -2 11 3 25 5 14 12 36 14 48 6 26 24 79 43 124 7 17 13 47 13 66 0 20 5 37 10 39 6 2 14 30 17 63 3 33 10 65 15 72 6 7 14 47 19 90 6 43 14 80 20 81 5 2 9 28 9 58 0 30 4 54 8 54 4 0 8 8 9 18 14 151 24 234 32 267 6 22 11 81 11 130 0 50 4 97 10 105 6 9 5 17 -2 21 -9 6 -8 12 3 25 12 14 14 92 14 479 0 324 -3 466 -11 476 -6 8 -12 61 -13 123 -1 60 -7 118 -12 128 -6 10 -13 67 -16 126 -3 59 -12 120 -19 136 -8 16 -14 55 -14 87 0 32 -5 70 -11 86 -6 15 -15 64 -20 107 -4 43 -13 84 -18 89 -6 6 -11 29 -11 51 0 23 -7 54 -15 70 -8 15 -15 50 -15 76 0 27 -6 52 -13 58 -7 6 -14 30 -16 53 -1 23 -9 51 -16 63 -8 11 -15 36 -15 54 0 19 -6 48 -13 65 -26 62 -39 103 -48 151 -4 27 -13 54 -19 60 -5 5 -10 27 -10 48 0 24 -5 41 -14 44 -8 3 -17 27 -21 55 -4 27 -10 49 -15 49 -4 0 -11 16 -14 35 -4 19 -11 35 -16 35 -6 0 -10 13 -10 29 0 16 -7 34 -15 41 -8 7 -15 25 -15 39 0 15 -7 36 -15 47 -8 10 -15 28 -15 40 0 11 -7 29 -15 40 -8 10 -15 29 -15 42 0 12 -7 25 -15 28 -8 4 -15 18 -15 34 0 15 -7 33 -15 40 -8 7 -15 20 -15 30 0 10 -7 23 -15 30 -8 7 -15 20 -15 29 0 9 -11 38 -24 64 -14 26 -30 63 -36 82 -6 19 -16 35 -21 35 -5 0 -9 7 -9 15 0 13 -67 152 -80 165 -9 9 -55 105 -55 115 0 6 -4 15 -10 22 -5 7 -15 18 -21 26 -6 7 -15 23 -18 35 -4 12 -12 22 -17 22 -5 0 -9 11 -9 24 0 13 -7 26 -15 30 -8 3 -15 14 -15 25 0 11 -5 23 -11 26 -5 4 -15 17 -20 28 -5 12 -18 36 -29 52 -11 17 -25 42 -31 58 -6 15 -15 27 -20 27 -5 0 -9 6 -9 13 0 8 -11 27 -25 43 -14 16 -28 39 -31 51 -3 12 -12 24 -20 27 -8 3 -14 14 -14 23 0 10 -8 26 -17 35 -31 29 -43 47 -43 63 0 8 -7 15 -15 15 -8 0 -15 9 -15 19 0 10 -7 21 -15 25 -8 3 -15 12 -15 20 0 8 -6 19 -12 23 -15 9 -33 37 -48 71 -5 12 -14 22 -20 22 -5 0 -10 7 -10 15 0 9 -7 18 -15 21 -8 4 -15 15 -15 25 0 10 -7 19 -15 19 -8 0 -15 7 -15 15 0 8 -7 15 -15 15 -8 0 -15 9 -15 20 0 11 -7 23 -15 26 -8 4 -15 12 -15 20 0 16 -35 54 -50 54 -5 0 -10 7 -10 16 0 14 -15 34 -72 95 -10 11 -18 22 -18 26 0 3 -7 13 -15 22 -8 9 -29 32 -47 52 -98 110 -191 210 -255 275 -40 40 -73 78 -73 84 0 5 -4 10 -9 10 -5 0 -29 18 -52 40 -24 22 -47 40 -51 40 -4 0 -8 7 -8 15 0 8 -4 15 -10 15 -5 0 -35 25 -67 55 -32 30 -61 55 -65 55 -5 0 -8 7 -8 15 0 8 -3 15 -7 15 -5 0 -26 16 -48 35 -22 19 -43 35 -48 35 -4 0 -18 11 -31 25 -13 14 -26 25 -30 25 -6 0 -31 22 -107 93 -16 15 -34 27 -40 27 -5 0 -20 11 -33 25 -13 14 -28 25 -34 25 -6 0 -25 13 -42 29 -18 16 -44 35 -58 42 -14 8 -38 26 -53 41 -16 14 -37 29 -48 33 -12 3 -21 11 -21 16 0 5 -7 9 -15 9 -8 0 -15 5 -15 10 0 6 -6 10 -13 10 -7 0 -23 9 -35 20 -12 11 -26 20 -32 20 -5 0 -10 4 -10 9 0 5 -11 12 -25 15 -13 3 -36 17 -51 31 -15 14 -38 28 -51 31 -13 4 -23 10 -23 15 0 5 -7 9 -15 9 -8 0 -15 5 -15 10 0 6 -5 10 -10 10 -6 0 -34 15 -63 34 -28 19 -64 38 -79 42 -16 3 -28 10 -28 15 0 5 -7 9 -15 9 -8 0 -15 4 -15 9 0 5 -10 11 -22 15 -13 3 -48 21 -79 39 -32 19 -69 37 -83 41 -14 3 -26 11 -26 16 0 6 -5 10 -12 10 -6 0 -36 12 -67 26 -31 14 -74 34 -96 44 -22 10 -52 22 -67 25 -16 4 -28 10 -28 14 0 4 -26 15 -57 25 -32 10 -63 22 -69 27 -6 5 -44 21 -85 35 -40 14 -85 32 -99 39 -15 8 -38 16 -51 18 -27 4 -32 6 -104 31 -27 10 -79 26 -115 36 -36 10 -78 22 -95 28 -16 5 -64 17 -105 27 -41 10 -95 24 -120 32 -24 8 -81 21 -125 29 -178 32 -201 36 -225 45 -14 5 -79 15 -145 24 -66 8 -169 21 -230 29 -163 22 -374 31 -715 31 -276 0 -604 -10 -619 -19 -3 -2 -39 -7 -80 -10 -41 -4 -77 -9 -80 -11 -4 -2 -40 -6 -81 -10 -101 -9 -190 -21 -280 -40 -41 -8 -104 -19 -140 -25 -36 -6 -85 -15 -110 -21 -25 -5 -54 -11 -65 -13 -50 -10 -262 -64 -440 -114 -33 -9 -64 -17 -70 -17 -5 0 -13 -4 -16 -8 -3 -4 -17 -9 -30 -11 -32 -3 -113 -28 -119 -37 -3 -3 -43 -16 -90 -28 -47 -12 -94 -28 -105 -35 -11 -7 -51 -23 -90 -36 -38 -12 -74 -26 -79 -31 -6 -5 -18 -9 -27 -9 -10 0 -40 -11 -67 -25 -28 -14 -54 -25 -59 -25 -5 0 -27 -9 -49 -19 -22 -11 -52 -23 -67 -26 -15 -4 -27 -10 -27 -14 0 -4 -20 -13 -45 -20 -25 -7 -45 -17 -45 -21 0 -4 -20 -13 -45 -20 -25 -7 -45 -17 -45 -22 0 -5 -5 -6 -11 -2 -6 3 -14 2 -18 -3 -5 -9 -33 -22 -143 -71 -21 -10 -38 -20 -38 -23 0 -4 -12 -10 -27 -14 -15 -3 -30 -10 -33 -13 -7 -10 -95 -52 -109 -52 -6 0 -11 -4 -11 -10 0 -5 -7 -10 -15 -10 -8 0 -15 -3 -15 -7 0 -5 -20 -17 -45 -28 -25 -11 -45 -23 -45 -27 0 -5 -7 -8 -15 -8 -8 0 -15 -4 -15 -9 0 -5 -12 -11 -27 -14 -16 -3 -38 -15 -50 -26 -12 -12 -27 -21 -33 -21 -5 0 -10 -4 -10 -10 0 -5 -4 -10 -9 -10 -5 0 -22 -5 -38 -12 -15 -6 -31 -11 -35 -10 -5 1 -8 -5 -8 -13 0 -8 -6 -15 -13 -15 -7 0 -23 -9 -35 -20 -12 -11 -26 -20 -32 -20 -5 0 -10 -4 -10 -10 0 -5 -7 -10 -15 -10 -8 0 -15 -4 -15 -10 0 -5 -7 -10 -15 -10 -8 0 -15 -4 -15 -10 0 -5 -7 -10 -15 -10 -8 0 -15 -4 -15 -10 0 -5 -7 -10 -15 -10 -8 0 -15 -4 -15 -10 0 -5 -7 -10 -15 -10 -8 0 -24 -9 -35 -20 -11 -11 -24 -20 -29 -20 -6 0 -24 -13 -41 -29 -18 -16 -44 -35 -58 -42 -15 -8 -33 -19 -39 -26 -7 -6 -28 -21 -48 -33 -19 -12 -35 -26 -35 -31 0 -5 -7 -9 -15 -9 -8 0 -15 -4 -15 -10 0 -5 -5 -10 -11 -10 -7 0 -22 -11 -35 -25 -13 -14 -26 -25 -30 -25 -4 0 -17 -11 -29 -24 -12 -13 -41 -36 -63 -51 -23 -15 -42 -32 -42 -36 0 -5 -5 -9 -11 -9 -6 0 -23 -12 -39 -27 -16 -16 -47 -44 -71 -63 -23 -19 -57 -48 -75 -65 -18 -16 -55 -48 -83 -70 -28 -22 -51 -44 -51 -50 0 -6 -13 -19 -30 -28 -16 -10 -30 -25 -30 -33 0 -8 -5 -14 -11 -14 -12 0 -289 -275 -289 -287 0 -4 -14 -17 -30 -28 -16 -11 -30 -24 -30 -30 -1 -5 -14 -21 -30 -35 -17 -13 -30 -29 -30 -35 0 -6 -8 -18 -17 -27 -36 -32 -73 -77 -73 -87 0 -6 -5 -11 -11 -11 -12 0 -48 -40 -49 -55 -1 -5 -14 -21 -30 -35 -17 -13 -30 -30 -30 -37 0 -7 -7 -13 -15 -13 -8 0 -15 -7 -15 -15 0 -9 -13 -28 -28 -43 -16 -15 -31 -35 -35 -45 -3 -9 -11 -17 -17 -17 -5 0 -10 -6 -10 -14 0 -8 -7 -16 -15 -20 -8 -3 -15 -12 -15 -20 0 -7 -7 -16 -15 -20 -8 -3 -15 -15 -15 -26 0 -11 -4 -20 -8 -20 -10 0 -82 -96 -82 -109 0 -5 -7 -11 -15 -15 -8 -3 -15 -12 -15 -19 0 -8 -13 -27 -30 -43 -16 -16 -30 -32 -30 -37 0 -4 -12 -26 -27 -50 -36 -56 -50 -78 -63 -102 -6 -11 -19 -33 -30 -50 -11 -16 -23 -37 -27 -45 -4 -8 -13 -21 -20 -28 -7 -7 -13 -19 -13 -27 0 -7 -7 -15 -15 -19 -8 -3 -15 -14 -15 -24 0 -11 -7 -25 -15 -32 -8 -7 -15 -20 -15 -30 0 -10 -7 -20 -15 -24 -8 -3 -15 -16 -15 -30 0 -13 -7 -26 -15 -30 -8 -3 -15 -14 -15 -25 0 -10 -7 -21 -15 -25 -8 -3 -15 -16 -15 -29 0 -14 -7 -30 -15 -37 -8 -7 -15 -19 -15 -26 0 -8 -4 -14 -10 -14 -5 0 -10 -6 -10 -13 0 -7 -9 -30 -20 -52 -11 -22 -20 -45 -20 -52 0 -7 -4 -13 -10 -13 -5 0 -14 -18 -20 -40 -6 -22 -15 -40 -20 -40 -6 0 -10 -11 -10 -24 0 -13 -7 -29 -15 -36 -8 -7 -15 -21 -15 -31 0 -9 -7 -24 -15 -33 -8 -8 -15 -23 -15 -33 0 -11 -13 -46 -30 -78 -16 -32 -30 -71 -30 -86 0 -14 -7 -32 -15 -39 -8 -7 -15 -18 -15 -26 0 -14 -22 -68 -46 -115 -7 -14 -14 -42 -16 -62 -1 -22 -7 -37 -15 -37 -8 0 -13 -12 -13 -28 0 -16 -7 -37 -15 -48 -8 -10 -15 -38 -15 -60 0 -28 -5 -44 -15 -48 -9 -3 -15 -18 -15 -35 0 -16 -7 -42 -15 -57 -8 -16 -15 -39 -15 -52 0 -13 -5 -32 -11 -43 -6 -11 -14 -41 -19 -67 -16 -83 -35 -157 -43 -169 -5 -7 -6 -17 -2 -22 3 -5 1 -12 -5 -16 -5 -3 -10 -32 -10 -64 0 -40 -5 -63 -15 -71 -10 -8 -15 -30 -15 -64 0 -29 -5 -57 -10 -62 -6 -6 -14 -44 -17 -85 -3 -41 -9 -78 -13 -84 -9 -11 -19 -87 -21 -160 -1 -27 -6 -58 -11 -68 -5 -10 -11 -57 -14 -105 -9 -166 -12 -217 -14 -217 -16 0 -24 -806 -9 -880 6 -27 14 -122 19 -210 5 -88 11 -173 15 -190 5 -25 19 -145 28 -252 1 -13 5 -23 8 -23 3 0 9 -39 13 -87 3 -48 10 -90 15 -93 4 -3 9 -34 10 -69 1 -36 9 -74 17 -85 8 -11 14 -37 14 -58 0 -20 6 -57 14 -80 8 -24 16 -65 19 -93 3 -27 10 -51 16 -53 6 -2 11 -23 11 -46 0 -23 7 -51 15 -62 8 -10 15 -39 15 -64 0 -25 7 -54 15 -64 8 -11 15 -36 15 -56 0 -20 7 -45 15 -56 8 -10 15 -35 15 -55 0 -19 7 -44 15 -55 8 -10 15 -32 15 -47 0 -15 7 -30 15 -33 10 -4 15 -20 15 -49 0 -25 6 -50 15 -59 8 -8 15 -25 15 -38 1 -13 7 -34 15 -48 8 -14 15 -36 15 -50 0 -14 7 -34 15 -44 8 -11 15 -30 15 -42 0 -12 7 -27 15 -34 8 -7 15 -27 15 -44 0 -18 7 -41 15 -52 8 -10 15 -29 15 -40 0 -12 7 -27 15 -34 8 -7 15 -23 15 -36 0 -12 7 -29 15 -38 8 -8 15 -25 15 -38 0 -13 7 -33 15 -44 8 -10 15 -29 15 -41 0 -12 7 -28 15 -37 8 -8 15 -26 15 -39 0 -14 7 -27 15 -31 8 -3 15 -16 15 -30 0 -13 7 -26 15 -30 8 -3 15 -12 15 -20 0 -8 8 -29 17 -48 9 -18 22 -45 30 -60 7 -14 13 -33 13 -41 0 -8 7 -20 15 -27 8 -7 15 -23 15 -35 0 -13 7 -25 15 -29 8 -3 15 -14 15 -26 0 -11 14 -42 30 -68 17 -27 30 -54 30 -59 0 -6 7 -16 15 -23 8 -7 15 -20 15 -30 0 -10 7 -20 15 -24 8 -3 15 -16 15 -30 0 -13 7 -26 15 -30 8 -3 15 -15 15 -26 0 -11 7 -23 15 -26 8 -4 15 -16 15 -29 0 -13 7 -25 15 -29 8 -3 15 -14 15 -25 0 -11 6 -24 13 -28 6 -4 22 -28 35 -53 13 -25 32 -58 42 -75 11 -16 24 -40 30 -52 5 -13 14 -23 20 -23 5 0 10 -6 10 -14 0 -7 7 -19 15 -26 8 -7 15 -20 15 -29 0 -9 13 -28 30 -41 16 -14 29 -32 30 -41 0 -9 7 -22 15 -29 8 -7 15 -19 15 -26 0 -8 5 -14 10 -14 6 0 15 -11 20 -25 5 -14 14 -25 20 -25 5 0 10 -7 10 -15 0 -7 6 -18 13 -22 14 -9 32 -37 47 -70 5 -13 14 -23 20 -23 5 0 10 -7 10 -15 0 -9 7 -18 15 -21 8 -4 15 -13 15 -20 0 -8 7 -17 15 -20 8 -4 15 -13 15 -20 0 -8 7 -17 15 -20 8 -4 15 -12 15 -19 0 -7 7 -15 15 -19 8 -3 15 -12 15 -20 0 -7 7 -16 15 -20 8 -3 15 -10 15 -16 0 -6 13 -24 30 -40 16 -16 30 -34 30 -40 0 -6 7 -13 15 -16 8 -4 15 -11 15 -18 0 -7 13 -23 30 -36 16 -14 29 -30 30 -35 0 -6 8 -18 18 -26 9 -9 35 -38 57 -64 22 -27 61 -71 88 -98 26 -28 47 -56 47 -64 0 -7 6 -13 13 -13 6 0 26 -16 42 -36 17 -20 65 -72 107 -116 43 -43 78 -83 78 -88 0 -6 7 -10 15 -10 8 0 15 -4 15 -10 0 -5 7 -10 15 -10 8 0 15 -5 15 -12 0 -12 100 -108 113 -108 4 0 7 -7 7 -15 0 -8 4 -15 10 -15 5 0 42 -32 81 -70 39 -39 73 -70 76 -70 3 0 16 -11 29 -25 13 -14 27 -25 31 -25 5 0 23 -16 42 -35 18 -19 39 -35 47 -35 8 0 14 -6 14 -14 0 -8 14 -23 30 -33 17 -9 30 -20 30 -24 0 -3 20 -19 45 -35 25 -15 45 -31 45 -35 0 -4 15 -17 33 -28 18 -11 46 -32 62 -46 17 -14 42 -33 58 -43 15 -9 27 -20 27 -24 0 -4 6 -8 13 -8 6 0 28 -14 47 -30 19 -16 41 -30 48 -30 6 0 12 -3 12 -8 0 -4 27 -25 60 -47 33 -22 60 -43 60 -47 0 -5 5 -8 10 -8 6 0 37 -18 70 -39 32 -22 68 -42 79 -46 12 -3 21 -10 21 -15 0 -4 20 -16 45 -27 25 -10 45 -23 45 -30 0 -6 13 -14 30 -18 16 -4 30 -10 30 -15 0 -5 14 -11 30 -15 17 -4 30 -10 30 -15 0 -4 17 -16 38 -25 20 -10 55 -30 77 -45 22 -15 51 -31 65 -35 14 -4 27 -11 30 -14 3 -4 55 -31 115 -60 97 -47 124 -60 185 -92 35 -19 128 -59 135 -59 4 0 40 -15 79 -34 39 -18 87 -39 106 -47 19 -7 37 -16 40 -19 8 -11 71 -30 96 -30 13 0 24 -4 24 -8 0 -5 26 -16 58 -26 31 -10 73 -26 92 -36 19 -9 67 -25 105 -35 39 -9 93 -26 120 -36 46 -17 170 -52 305 -85 30 -8 76 -21 101 -29 41 -13 162 -40 229 -50 14 -2 63 -13 110 -23 47 -11 119 -23 160 -27 41 -4 127 -15 190 -25 130 -21 339 -37 574 -45 87 -3 162 -8 167 -11 5 -3 9 0 9 6 0 6 5 8 11 5 10 -7 206 -7 384 0 180 7 340 16 365 20 14 2 61 7 104 10 44 3 82 8 86 10 8 5 65 12 190 25 79 8 180 24 285 45 11 3 49 9 85 15 60 9 108 19 200 40 19 5 78 18 130 29 52 11 121 29 153 40 32 11 62 20 65 19 15 -3 102 15 102 21 0 4 21 12 48 19 94 25 586 189 647 216 17 8 48 19 70 26 22 7 65 26 95 41 73 37 188 86 223 94 15 4 27 11 27 16 0 5 6 9 13 9 10 0 69 28 172 84 17 9 35 16 40 16 6 0 26 11 45 24 19 12 53 29 74 36 22 7 49 21 59 31 11 10 33 21 48 24 16 4 29 10 29 15 0 4 14 13 30 20 16 7 30 16 30 21 0 5 9 9 19 9 11 0 26 6 33 13 7 6 38 25 68 40 78 39 114 61 118 70 2 4 10 7 18 7 8 0 14 4 14 8 0 5 19 17 43 28 23 10 48 24 55 31 7 7 28 20 47 29 19 9 35 20 35 25 0 5 7 9 15 9 8 0 15 5 15 10 0 6 7 10 15 10 8 0 15 5 15 10 0 6 6 10 13 10 6 0 25 12 42 26 16 14 44 32 62 41 18 8 33 19 33 24 0 5 7 9 15 9 8 0 15 5 15 10 0 6 6 10 13 10 6 0 28 14 47 30 19 16 39 30 44 30 5 0 19 11 32 25 13 14 27 25 31 25 4 0 20 10 34 23 15 12 63 47 108 77 44 30 81 61 81 68 0 6 7 12 15 12 8 0 15 5 15 10 0 6 5 10 10 10 6 0 21 11 34 25 13 14 26 25 30 25 4 0 20 12 36 28 15 15 45 41 66 57 21 17 53 45 71 63 18 17 35 32 38 32 6 0 49 38 112 97 18 18 38 33 43 33 6 0 10 7 10 15 0 8 5 15 11 15 12 0 109 94 109 106 0 5 21 23 45 39 25 17 45 33 45 36 0 3 54 60 120 128 66 67 120 127 120 132 0 5 7 9 15 9 8 0 15 6 15 13 0 6 21 31 45 55 25 24 45 48 45 52 0 5 27 37 60 70 33 33 60 63 60 67 0 3 14 19 30 35 17 15 30 34 30 42 0 8 7 16 15 20 8 3 15 11 15 18 1 7 14 24 30 38 17 13 30 30 30 37 0 7 5 13 10 13 6 0 15 11 20 25 5 14 14 25 20 25 5 0 10 7 10 15 0 8 7 15 15 15 8 0 15 9 15 19 0 10 7 21 15 25 8 3 15 12 15 20 0 7 7 16 15 20 8 3 15 12 15 21 0 8 7 15 15 15 8 0 15 8 15 19 0 10 7 24 15 31 8 7 15 19 15 26 0 8 7 14 15 14 8 0 15 8 15 18 0 9 13 31 28 48 41 48 68 89 91 141 6 13 15 23 20 23 5 0 12 8 15 18 9 23 31 61 45 75 6 6 11 19 11 28 0 9 7 19 15 23 8 3 15 15 15 26 0 11 5 20 10 20 6 0 15 10 20 22 6 13 19 37 30 53 11 17 22 37 26 45 3 8 10 22 15 30 5 8 13 25 18 37 6 11 15 24 20 28 6 3 11 14 11 25 0 10 7 20 15 24 8 3 15 14 15 24 0 11 7 25 15 32 8 7 15 21 15 32 0 10 7 21 15 24 8 4 15 16 15 29 0 12 7 28 15 35 8 7 15 23 15 35 0 13 7 25 15 29 8 3 15 14 15 24 0 11 7 25 15 32 8 7 15 23 15 35 0 12 7 28 15 35 8 7 15 18 15 25 0 7 7 18 15 25 8 7 15 25 15 40 0 16 7 30 15 34 8 3 15 16 15 29 0 13 7 32 15 43 8 10 15 31 15 45 0 15 7 32 15 39 8 7 15 20 15 30 0 10 7 23 15 30 8 7 15 23 15 35 0 12 7 28 15 35 8 7 15 22 15 34 0 12 4 26 9 32 6 5 14 27 20 49 12 52 30 103 47 138 8 16 14 40 14 53 0 13 4 24 10 24 5 0 7 7 4 15 -4 8 -1 15 5 15 6 0 11 12 11 28 1 15 7 38 15 52 8 14 14 39 15 57 0 17 7 38 15 47 9 8 15 33 15 59 0 26 6 49 14 56 8 6 16 26 19 44 11 63 33 152 45 180 7 16 12 47 12 71 0 23 5 47 12 54 6 6 13 31 15 54 3 24 9 48 13 54 5 6 13 43 16 82 4 40 10 72 13 72 4 0 8 8 9 18 1 9 4 46 8 82 3 36 11 70 16 77 5 6 12 60 15 120 3 59 10 113 15 120 5 7 12 70 15 140 3 70 11 156 18 190 7 36 13 158 15 295 1 128 4 258 7 288 2 30 3 62 2 70 -1 15 -5 195 -9 423 -1 72 -6 130 -12 133 -6 4 -5 10 3 14 10 7 10 12 1 23 -7 8 -15 64 -18 133 -3 66 -8 126 -11 134 -7 19 -9 39 -21 170 -6 58 -15 121 -21 140 -6 19 -11 61 -11 93 0 33 -6 73 -14 90 -8 18 -17 65 -20 106 -3 41 -10 79 -16 85 -5 5 -10 29 -10 53 0 24 -7 60 -15 79 -8 20 -16 60 -17 90 -1 29 -7 55 -14 58 -6 2 -14 35 -17 73 -4 37 -11 69 -17 71 -5 2 -10 20 -10 40 0 21 -7 50 -15 66 -8 15 -15 42 -15 60 0 17 -7 40 -15 50 -8 11 -15 34 -15 52 0 17 -7 45 -15 60 -8 16 -15 39 -15 51 0 12 -7 34 -15 50 -8 15 -17 45 -20 66 -3 20 -10 37 -15 37 -6 0 -10 15 -10 34 0 18 -6 38 -13 44 -7 6 -14 30 -16 54 -1 23 -9 50 -17 59 -7 8 -14 24 -14 35 0 11 -6 26 -12 33 -7 6 -13 15 -13 19 -3 32 -18 82 -25 82 -6 0 -10 13 -10 28 0 16 -7 37 -15 48 -8 10 -15 31 -15 45 0 15 -7 32 -15 39 -8 7 -15 23 -15 35 0 12 -7 28 -15 35 -8 7 -15 26 -15 42 0 16 -6 31 -15 34 -9 4 -15 19 -15 35 0 17 -5 29 -13 29 -12 0 -32 58 -44 128 -3 19 -12 36 -19 39 -8 3 -14 13 -14 23 0 11 -4 21 -9 24 -13 9 -51 89 -51 109 0 10 -7 20 -15 23 -8 4 -15 17 -15 29 0 13 -7 30 -15 39 -8 8 -15 26 -15 41 0 14 -7 28 -15 31 -8 4 -15 15 -15 25 0 11 -7 22 -15 25 -8 4 -15 17 -15 30 0 14 -7 27 -15 30 -8 4 -15 16 -15 29 0 12 -7 28 -15 35 -8 7 -15 18 -15 26 0 7 -6 19 -12 26 -18 20 -48 77 -48 93 0 7 -7 18 -15 25 -8 7 -15 21 -15 31 0 10 -6 22 -12 26 -16 10 -48 70 -48 89 0 8 -7 14 -15 14 -8 0 -15 8 -15 18 0 10 -5 23 -11 29 -11 11 -26 36 -49 78 -6 11 -19 34 -30 50 -11 17 -26 42 -32 58 -7 15 -16 27 -20 27 -4 0 -8 6 -8 14 0 8 -3 16 -7 18 -9 3 -53 64 -53 72 0 2 -16 28 -35 57 -19 30 -35 58 -35 64 0 6 -11 19 -25 29 -14 10 -25 27 -25 37 0 11 -7 19 -15 19 -8 0 -15 9 -15 20 0 11 -7 23 -15 26 -8 3 -17 16 -21 27 -4 12 -17 32 -30 44 -13 12 -24 25 -24 28 0 10 -74 105 -82 105 -4 0 -8 5 -8 10 0 14 -72 110 -82 110 -4 0 -8 9 -8 20 0 11 -5 20 -11 20 -11 0 -48 40 -49 53 0 4 -8 15 -17 26 -55 58 -73 80 -73 90 0 6 -7 11 -15 11 -8 0 -15 5 -15 11 0 11 -24 39 -87 106 -18 18 -33 37 -33 42 0 4 -13 21 -30 37 -16 16 -30 35 -30 42 0 6 -4 12 -9 12 -11 0 -111 99 -111 111 0 5 -5 9 -11 9 -14 0 -48 41 -49 58 0 6 -7 12 -15 12 -8 0 -15 7 -15 15 0 8 -7 15 -15 15 -8 0 -15 7 -15 15 0 8 -7 15 -15 15 -8 0 -15 7 -15 15 0 8 -4 15 -10 15 -5 0 -48 38 -96 85 -47 47 -90 85 -95 85 -5 0 -9 5 -9 11 0 10 -66 79 -75 79 -3 0 -17 12 -34 28 -49 46 -155 139 -186 164 -16 12 -37 30 -46 38 -39 36 -83 72 -110 87 -16 10 -29 20 -29 24 0 3 -20 19 -45 35 -25 15 -45 32 -45 36 0 4 -7 8 -15 8 -8 0 -15 5 -15 10 0 6 -4 10 -9 10 -9 0 -17 6 -91 70 -19 17 -45 33 -57 36 -13 3 -23 12 -23 20 0 8 -7 14 -15 14 -8 0 -15 5 -15 10 0 6 -5 10 -10 10 -6 0 -20 9 -32 20 -12 11 -28 20 -35 20 -7 0 -13 5 -13 10 0 6 -6 10 -13 10 -7 0 -23 9 -35 20 -12 11 -26 20 -32 20 -5 0 -10 3 -10 8 0 4 -13 13 -28 20 -16 6 -37 20 -48 30 -11 9 -37 26 -59 37 -22 11 -44 25 -48 32 -4 7 -14 13 -21 13 -7 0 -26 11 -42 25 -16 14 -45 32 -64 40 -19 9 -44 21 -55 27 -11 7 -40 23 -65 36 -25 13 -47 27 -50 31 -3 3 -23 15 -45 26 -22 11 -42 22 -45 25 -3 4 -27 16 -55 29 -90 41 -180 86 -185 93 -3 4 -24 15 -45 24 -22 9 -42 20 -45 24 -3 4 -25 14 -50 23 -61 21 -154 61 -160 68 -3 3 -30 14 -60 24 -30 10 -57 21 -60 25 -3 4 -36 17 -75 30 -38 13 -79 29 -90 36 -11 6 -46 20 -77 30 -32 10 -58 22 -58 26 0 5 -6 8 -12 7 -7 -1 -20 0 -28 3 -8 4 -36 12 -62 18 -27 7 -48 17 -48 21 0 5 -11 9 -25 9 -14 0 -33 4 -43 9 -22 12 -246 82 -292 92 -19 4 -107 26 -195 49 -88 23 -216 52 -285 66 -69 13 -147 28 -175 34 -51 11 -269 45 -385 60 -59 8 -349 35 -490 46 -30 3 -118 7 -195 9 -77 3 -151 7 -165 10 -14 2 -33 0 -42 -6z" style="fill: rgb(65, 192, 186);"/>
  </g>
</svg>