<?xml version="1.0" encoding="UTF-8"?>
<svg xmlns="http://www.w3.org/2000/svg" xmlns:xlink="http://www.w3.org/1999/xlink" width="3750" height="3750" viewBox="0 0 3750 3750">
<rect x="-375" y="-375" width="4500" height="4500" fill="rgb(100%, 100%, 100%)" fill-opacity="1"/>
<path fill-rule="nonzero" fill="rgb(0%, 0%, 0%)" fill-opacity="1" d="M 2478.640625 1902.460938 C 2478.660156 1903.070312 2478.660156 1903.488281 2478.660156 1903.621094 L 2478.621094 1902.460938 Z M 2253.488281 1901.710938 L 2255.398438 1903.621094 Z M 1865.640625 191.371094 C 916.125 191.371094 145.210938 956.058594 135.136719 1903.199219 C 135.070312 1909.449219 135.039062 1915.710938 135.039062 1921.980469 C 135.039062 1927.609375 135.066406 1933.21875 135.117188 1938.851562 C 135.324219 1960.261719 152.738281 1977.519531 174.15625 1977.519531 L 209.019531 1977.519531 C 219.4375 1977.519531 229.425781 1973.359375 236.757812 1965.949219 C 244.089844 1958.550781 248.160156 1948.519531 248.058594 1938.101562 C 248.007812 1932.730469 247.980469 1927.359375 247.980469 1921.980469 C 247.980469 1916.179688 248.011719 1910.390625 248.070312 1904.609375 L 248.066406 1904.609375 C 248.070312 1904.421875 248.074219 1904.230469 248.078125 1904.050781 C 257.6875 1018.898438 978.21875 304.308594 1865.640625 304.308594 C 2753.070312 304.308594 3473.601562 1018.898438 3483.210938 1904.039062 C 3483.269531 1910.050781 3483.308594 1915.949219 3483.308594 1921.980469 C 3483.300781 1927.25 3483.261719 1932.761719 3483.199219 1938.019531 C 3473.578125 2761.582031 2802.96875 3426.242188 1977.128906 3426.242188 C 1152.351562 3426.242188 482.40625 2763.300781 471.085938 1941.21875 L 471.082031 1941.21875 C 471.15625 1940.160156 471.1875 1939.089844 471.175781 1938.019531 C 471.105469 1932.359375 471.074219 1926.710938 471.074219 1921.050781 C 471.074219 1915.609375 471.105469 1910.199219 471.167969 1904.78125 L 471.160156 1904.78125 C 471.167969 1904.558594 471.171875 1904.320312 471.175781 1904.089844 C 480.257812 1142.21875 1100.691406 527.398438 1864.71875 527.398438 C 2628.738281 527.398438 3249.171875 1142.21875 3258.25 1904.078125 C 3258.320312 1909.769531 3258.359375 1915.339844 3258.359375 1921.050781 C 3258.359375 1926.75 3258.320312 1932.320312 3258.25 1938.011719 C 3258.199219 1942.039062 3258.78125 1946.019531 3259.929688 1949.808594 L 3259.890625 1949.808594 C 3244.609375 2644.601562 2676.589844 3203.148438 1978.121094 3203.148438 C 1275.960938 3203.148438 705.625 2638.679688 696.144531 1938.78125 L 696.136719 1938.78125 C 696.140625 1938.511719 696.140625 1938.238281 696.136719 1937.96875 C 696.0625 1932.339844 696.027344 1926.699219 696.027344 1921.050781 C 696.027344 1915.410156 696.0625 1909.761719 696.136719 1904.128906 C 696.1875 1900.148438 695.628906 1896.230469 694.515625 1892.488281 L 694.507812 1892.488281 C 709.667969 1259.210938 1227.789062 750.5 1864.71875 750.5 C 2505.558594 750.5 3026.121094 1265.480469 3035.140625 1904.171875 C 3035.148438 1904.691406 3035.171875 1905.210938 3035.199219 1905.730469 L 3035.160156 1905.730469 C 3035.230469 1910.820312 3035.261719 1915.941406 3035.261719 1921.050781 C 3035.261719 1926.671875 3035.21875 1932.320312 3035.140625 1937.929688 C 3035.089844 1941.929688 3035.640625 1945.878906 3036.769531 1949.648438 L 3036.738281 1949.648438 C 3021.589844 2521.300781 2553.421875 2980.054688 1978.121094 2980.054688 C 1399.171875 2980.054688 928.722656 2515.460938 919.265625 1938.769531 L 919.253906 1938.769531 C 919.257812 1938.46875 919.253906 1938.171875 919.25 1937.871094 C 919.164062 1932.28125 919.121094 1926.660156 919.121094 1921.050781 C 919.121094 1915.421875 919.164062 1909.839844 919.25 1904.230469 C 919.3125 1900.28125 918.777344 1896.390625 917.6875 1892.671875 L 917.679688 1892.671875 C 932.679688 1382.539062 1350.941406 973.589844 1864.71875 973.589844 C 2382.378906 973.589844 2803.089844 1388.769531 2812.019531 1904.289062 C 2812.03125 1904.789062 2812.050781 1905.289062 2812.070312 1905.789062 L 2812.050781 1905.789062 C 2812.128906 1910.871094 2812.171875 1915.941406 2812.171875 1921.050781 C 2812.171875 1926.660156 2812.121094 1932.210938 2812.019531 1937.800781 C 2811.949219 1941.769531 2812.488281 1945.679688 2813.578125 1949.421875 L 2813.550781 1949.429688 C 2798.601562 2397.941406 2430.28125 2756.957031 1978.121094 2756.957031 L 1978.121094 2756.960938 C 1522.359375 2756.957031 1151.789062 2392.199219 1142.398438 1938.699219 L 1142.378906 1938.699219 C 1142.390625 1938.371094 1142.378906 1938.039062 1142.378906 1937.710938 C 1142.269531 1932.171875 1142.210938 1926.621094 1142.210938 1921.050781 C 1142.210938 1915.480469 1142.269531 1909.929688 1142.378906 1904.390625 C 1142.449219 1900.488281 1141.941406 1896.648438 1140.898438 1892.96875 L 1140.890625 1892.96875 C 1155.640625 1505.941406 1474.058594 1196.691406 1864.699219 1196.691406 L 1864.71875 1196.691406 C 2259.238281 1196.691406 2580.101562 1512.101562 2588.890625 1904.488281 C 2588.898438 1904.96875 2588.921875 1905.441406 2588.949219 1905.921875 L 2588.921875 1905.921875 C 2589.019531 1910.921875 2589.070312 1916.03125 2589.070312 1921.050781 C 2589.070312 1926.53125 2589.011719 1932.140625 2588.890625 1937.601562 C 2588.800781 1941.5 2589.300781 1945.351562 2590.328125 1949.03125 L 2590.308594 1949.03125 C 2575.679688 2274.480469 2307.191406 2533.859375 1978.121094 2533.859375 C 1645.511719 2533.859375 1374.789062 2268.871094 1365.550781 1938.519531 L 1365.539062 1938.519531 C 1365.539062 1938.160156 1365.53125 1937.808594 1365.519531 1937.449219 C 1365.378906 1932 1365.308594 1926.539062 1365.308594 1921.050781 C 1365.308594 1915.558594 1365.378906 1910.101562 1365.519531 1904.648438 C 1365.621094 1900.859375 1365.171875 1897.109375 1364.210938 1893.519531 L 1364.191406 1893.519531 C 1378.46875 1629.488281 1597.109375 1419.789062 1864.699219 1419.78125 L 1864.71875 1419.78125 C 2136.140625 1419.789062 2357.191406 1635.53125 2365.71875 1904.859375 C 2365.738281 1905.308594 2365.761719 1905.761719 2365.789062 1906.210938 L 2365.761719 1906.210938 C 2365.910156 1911.128906 2365.980469 1916.089844 2365.980469 1921.050781 C 2365.980469 1926.460938 2365.890625 1931.871094 2365.71875 1937.238281 C 2365.609375 1940.960938 2366.019531 1944.648438 2366.929688 1948.191406 L 2366.910156 1948.191406 C 2352.980469 2150.761719 2184.230469 2310.769531 1978.121094 2310.769531 C 1768.570312 2310.769531 1597.640625 2145.371094 1588.769531 1938.03125 L 1588.75 1938.03125 C 1588.738281 1937.660156 1588.730469 1937.289062 1588.71875 1936.910156 C 1588.511719 1931.660156 1588.398438 1926.359375 1588.398438 1921.050781 C 1588.398438 1915.738281 1588.511719 1910.441406 1588.71875 1905.179688 C 1588.859375 1901.710938 1588.53125 1898.261719 1587.769531 1894.929688 L 1587.75 1894.929688 C 1600.910156 1753.558594 1719.898438 1642.871094 1864.71875 1642.871094 C 2013.199219 1642.871094 2134.539062 1759.238281 2142.46875 1905.730469 C 2142.488281 1906.148438 2142.519531 1906.570312 2142.558594 1906.980469 L 2142.539062 1906.980469 C 2142.769531 1911.640625 2142.878906 1916.320312 2142.878906 1921.050781 C 2142.878906 1926.191406 2142.75 1931.289062 2142.46875 1936.371094 C 2142.308594 1939.378906 2142.5 1942.378906 2143.019531 1945.308594 L 2142.988281 1945.308594 C 2131.269531 2025.820312 2061.890625 2087.679688 1978.121094 2087.679688 C 1891.25 2087.679688 1819.878906 2021.179688 1812.179688 1936.339844 L 1812.160156 1936.339844 C 1812.140625 1935.960938 1812.121094 1935.589844 1812.089844 1935.210938 C 1811.691406 1930.550781 1811.5 1925.828125 1811.5 1921.050781 C 1811.5 1916.28125 1811.691406 1911.539062 1812.089844 1906.890625 C 1812.160156 1906.050781 1812.199219 1905.210938 1812.21875 1904.371094 L 1812.191406 1904.371094 C 1819.25 1882.101562 1840.140625 1865.96875 1864.71875 1865.96875 C 1891.609375 1865.96875 1914.070312 1885.28125 1918.851562 1910.808594 C 1918.910156 1911.109375 1918.96875 1911.429688 1919.03125 1911.730469 L 1919.011719 1911.730469 C 1919.519531 1914.730469 1919.789062 1917.839844 1919.789062 1921.050781 C 1919.789062 1924.578125 1919.460938 1928 1918.851562 1931.289062 C 1916.710938 1942.699219 1919.769531 1954.480469 1927.179688 1963.410156 C 1934.601562 1972.351562 1945.609375 1977.519531 1957.21875 1977.519531 L 1992.519531 1977.519531 C 2012.070312 1977.519531 2028.601562 1963.070312 2031.21875 1943.640625 L 2031.21875 1943.628906 C 2032.21875 1936.230469 2032.730469 1928.679688 2032.730469 1921.050781 C 2032.730469 1913.378906 2032.21875 1905.820312 2031.210938 1898.390625 C 2020.121094 1816.300781 1949.839844 1753.03125 1864.71875 1753.03125 C 1779.589844 1753.03125 1709.308594 1816.300781 1698.21875 1898.390625 C 1698.148438 1898.839844 1698.101562 1899.289062 1698.058594 1899.75 L 1698.039062 1899.75 C 1697.148438 1906.738281 1696.691406 1913.839844 1696.691406 1921.050781 C 1696.691406 1928.71875 1697.210938 1936.269531 1698.21875 1943.699219 C 1698.609375 1946.578125 1699.300781 1949.351562 1700.269531 1951.980469 L 1700.25 1951.980469 C 1715.660156 2091.851562 1834.171875 2200.621094 1978.121094 2200.621094 C 2125.21875 2200.621094 2245.761719 2087.019531 2256.851562 1942.738281 L 2256.828125 1942.738281 C 2256.878906 1942.25 2256.929688 1941.761719 2256.960938 1941.269531 C 2257.441406 1934.578125 2257.679688 1927.859375 2257.679688 1921.050781 C 2257.679688 1914.269531 2257.441406 1907.511719 2256.960938 1900.839844 C 2256.691406 1897.058594 2255.890625 1893.441406 2254.640625 1890.058594 L 2254.609375 1890.058594 C 2238.800781 1688.519531 2070.289062 1529.929688 1864.71875 1529.929688 C 1655.191406 1529.929688 1484.171875 1694.671875 1474.070312 1901.710938 C 1474.058594 1902.109375 1474.039062 1902.511719 1474.03125 1902.898438 L 1474.019531 1902.898438 C 1473.738281 1908.910156 1473.601562 1914.96875 1473.601562 1921.050781 C 1473.601562 1927.519531 1473.761719 1933.980469 1474.070312 1940.378906 C 1474.269531 1944.429688 1475.078125 1948.308594 1476.410156 1951.941406 L 1476.390625 1951.941406 C 1492.371094 2215.179688 1710.878906 2423.710938 1978.121094 2423.710938 C 2249.410156 2423.710938 2470.488281 2208.800781 2480.429688 1939.929688 C 2480.660156 1933.671875 2480.78125 1927.351562 2480.78125 1921.050781 C 2480.78125 1914.75 2480.660156 1908.429688 2480.429688 1902.179688 C 2480.28125 1898.089844 2479.5 1894.179688 2478.199219 1890.519531 L 2478.171875 1890.519531 C 2462.25 1565.46875 2193.691406 1306.839844 1864.71875 1306.839844 C 1531.71875 1306.839844 1260.628906 1571.828125 1250.789062 1902.460938 C 1250.769531 1902.820312 1250.769531 1903.179688 1250.769531 1903.53125 L 1250.75 1903.53125 C 1250.589844 1909.359375 1250.511719 1915.191406 1250.511719 1921.050781 C 1250.511719 1927.269531 1250.601562 1933.449219 1250.789062 1939.640625 C 1250.910156 1943.808594 1251.679688 1947.808594 1253.011719 1951.550781 L 1253 1951.550781 C 1268.988281 2338.238281 1587.519531 2646.800781 1978.121094 2646.800781 C 2372.789062 2646.800781 2693.871094 2331.78125 2703.640625 1939.460938 C 2703.789062 1933.339844 2703.871094 1927.199219 2703.871094 1921.050781 C 2703.871094 1914.898438 2703.800781 1908.769531 2703.640625 1902.648438 C 2703.539062 1898.511719 2702.800781 1894.539062 2701.511719 1890.820312 L 2701.480469 1890.820312 C 2685.558594 1442.378906 2317.019531 1083.75 1864.71875 1083.75 C 1408.390625 1083.75 1037.339844 1448.78125 1027.609375 1902.78125 C 1027.480469 1908.851562 1027.410156 1914.949219 1027.410156 1921.050781 C 1027.410156 1927.140625 1027.480469 1933.25 1027.609375 1939.308594 C 1027.699219 1943.511719 1028.449219 1947.539062 1029.761719 1951.308594 L 1029.75 1951.308594 C 1045.730469 2461.351562 1464.210938 2869.902344 1978.121094 2869.902344 C 2496.089844 2869.902344 2917.109375 2454.871094 2926.800781 1939.210938 C 2926.910156 1933.160156 2926.96875 1927.128906 2926.96875 1921.050781 C 2926.96875 1914.96875 2926.910156 1908.941406 2926.800781 1902.890625 C 2926.71875 1898.738281 2925.988281 1894.75 2924.71875 1891.019531 L 2924.691406 1891.019531 C 2908.78125 1319.25 2440.308594 860.648438 1864.71875 860.648438 C 1285.109375 860.648438 814.128906 1325.660156 804.472656 1902.960938 C 804.464844 1903.261719 804.464844 1903.550781 804.464844 1903.839844 L 804.457031 1903.839844 C 804.367188 1909.570312 804.320312 1915.300781 804.320312 1921.050781 C 804.320312 1927.089844 804.371094 1933.109375 804.472656 1939.128906 C 804.542969 1943.328125 805.273438 1947.371094 806.566406 1951.140625 L 806.558594 1951.140625 C 822.53125 2584.488281 1340.941406 3092.996094 1978.121094 3092.996094 C 2618.800781 3092.996094 3139.398438 2578.890625 3149.898438 1940.699219 L 3149.871094 1940.699219 C 3149.890625 1940.160156 3149.910156 1939.609375 3149.929688 1939.070312 C 3150.019531 1933.089844 3150.058594 1927.050781 3150.058594 1921.050781 C 3150.058594 1915.050781 3150.019531 1909.019531 3149.929688 1903.03125 C 3149.859375 1898.878906 3149.148438 1894.890625 3147.890625 1891.148438 L 3147.859375 1891.148438 C 3131.96875 1196.101562 2563.570312 637.558594 1864.71875 637.558594 C 1161.859375 637.558594 590.964844 1202.5 581.347656 1903.078125 C 581.265625 1909.058594 581.226562 1915.050781 581.226562 1921.050781 C 581.226562 1927.039062 581.265625 1933.03125 581.347656 1939.011719 C 581.40625 1943.210938 582.125 1947.25 583.40625 1951.03125 L 583.402344 1951.03125 C 599.359375 2707.660156 1217.679688 3316.089844 1978.121094 3316.089844 C 2742.589844 3316.089844 3363.441406 2701.179688 3373.039062 1938.96875 C 3373.121094 1933.058594 3373.148438 1926.980469 3373.148438 1921.050781 C 3373.148438 1915.078125 3373.121094 1909.089844 3373.039062 1903.128906 C 3372.988281 1898.980469 3372.289062 1894.988281 3371.039062 1891.25 L 3371.011719 1891.25 C 3355.128906 1072.929688 2686.820312 414.460938 1864.71875 414.460938 C 1039.769531 414.460938 369.675781 1077.5 358.28125 1899.75 L 358.273438 1899.75 C 358.160156 1900.890625 358.097656 1902.050781 358.085938 1903.21875 C 358.03125 1908.820312 358 1914.449219 358 1920.058594 C 358 1925.828125 358.03125 1931.601562 358.089844 1937.351562 L 358.085938 1937.351562 C 358.050781 1938.5 358.070312 1939.648438 358.136719 1940.78125 L 358.128906 1940.78125 C 369.234375 2825.457031 1089.820312 3539.183594 1977.128906 3539.183594 C 2865.039062 3539.183594 3586.019531 2824.457031 3596.140625 1938.929688 C 3596.191406 1933.910156 3596.230469 1928.859375 3596.238281 1923.820312 L 3596.210938 1923.820312 C 3596.230469 1923.210938 3596.25 1922.589844 3596.25 1921.980469 C 3596.25 1915.628906 3596.21875 1909.53125 3596.148438 1903.210938 C 3596.148438 1903.210938 3596.148438 1903.210938 3596.148438 1903.199219 C 3586.078125 956.058594 2815.160156 191.371094 1865.640625 191.371094 Z M 1865.640625 191.371094 "/>
</svg>
